<?xml version="1.0" encoding="UTF-8" standalone="no"?>
<!DOCTYPE svg PUBLIC "-//W3C//DTD SVG 1.1//EN" "http://www.w3.org/Graphics/SVG/1.1/DTD/svg11.dtd">
<svg width="100%" height="100%" viewBox="0 0 5760 3240" version="1.1" xmlns="http://www.w3.org/2000/svg" xmlns:xlink="http://www.w3.org/1999/xlink" xml:space="preserve" xmlns:serif="http://www.serif.com/" style="fill-rule:evenodd;clip-rule:evenodd;stroke-linejoin:round;stroke-miterlimit:2;">
    <g transform="matrix(5.625,0,0,5.625,0,0)">
        <path d="M409.056,430.469C408.962,431.515 407.927,443 407.497,443.498C407.372,443.642 406.082,445.136 405.278,442.617C405.065,441.95 404.781,439.766 402.538,435.479C401.291,433.094 397.038,430.539 396.095,439.445C395.674,443.422 395.326,446.741 393.496,446.519C391.897,446.325 389.946,439.688 385.439,441.349C382.213,442.539 384.31,449.272 378.399,446.722C374.55,445.061 374.315,444.736 370.468,446.439C366.858,448.036 366.631,446.442 357.476,447.071C349.427,447.625 336.338,447.594 334.5,447.59C332.279,447.584 321.455,447.674 310.499,447.594C307.047,447.569 305.838,447.942 305.735,444.491C305.556,438.481 305.679,307.419 305.69,295.5C305.696,288.417 305.44,286.959 307.524,286.666C308.715,286.498 340.717,286.787 365.501,286.593C370.469,286.554 370.097,288.037 372.461,288.651C377.113,289.857 379.926,284.789 382.268,287.686C383.397,289.082 383.119,292.591 386.543,293.086C389.734,293.547 392.406,288.185 392.81,287.873C394.637,286.461 395.246,289.321 395.296,289.555C396.366,294.584 396.037,300.513 399.469,300.791C403.209,301.094 405.147,291.208 405.671,290.65C405.792,290.521 407.181,289.042 407.743,291.393C407.817,291.701 408.522,297.923 408.587,298.491C409.374,305.431 408.881,312.245 411.401,313.641C413.966,315.062 414.84,312.037 416.164,307.403C417.564,302.505 418.082,296.129 418.633,295.617C418.729,295.528 419.566,294.749 420.27,295.652C420.646,296.133 421.799,313.548 422.206,332.507C422.331,338.355 422.475,338.346 423.574,342.479C423.895,343.69 424.281,347.244 424.53,347.474C425.967,348.794 426.449,346.665 426.488,346.495C426.908,344.638 427.126,340.192 428.629,330.518C428.863,329.008 428.751,329.009 430.679,311.528C430.95,309.075 430.795,303.054 432.388,303.886C433.76,304.604 433.277,304.976 433.325,306.531C433.673,317.853 434.033,317.826 434.258,339.503C434.323,345.78 434.753,365.568 434.023,410.488C434.001,411.848 433.858,411.836 433.32,427.469C433.316,427.602 433.414,429.443 432.668,429.822C431.383,430.476 431.198,429.515 430.902,425.454C430.271,416.803 429.834,415.929 429.092,406.542C428.909,404.236 427.376,393.432 427.187,391.539C427.133,391.004 426.57,385.383 426.054,384.912C425.943,384.81 424.913,384.748 424.766,384.842C424.239,385.18 424.628,385.381 423.027,392.385C422.636,394.092 422.31,394.073 422.048,406.488C421.69,423.427 420.505,438.096 420.299,438.376C419.574,439.359 418.697,438.512 418.599,438.418C418.233,438.065 415.957,421.029 413.387,419.691C412.231,419.089 410.088,420.039 409.552,423.507C409.299,425.147 409.081,429.911 409.056,430.469ZM331.842,414.488C332.016,415.512 331.454,417.595 334.498,417.641C338.836,417.707 340.762,417.744 341.068,416.333C341.18,415.814 341.149,415.805 341.152,323.5C341.152,320.179 341.4,317.403 340.324,316.852C339.908,316.639 333.177,315.84 332.361,317.404C331.751,318.575 331.823,318.662 331.823,363.5L331.823,389.5C331.823,409.981 331.814,409.968 331.842,414.488ZM319.948,412.5C319.974,416.358 319.655,417.792 323.506,417.622C326.407,417.494 325.888,416.093 325.888,408.5C325.888,318.627 325.89,318.626 325.867,318.449C325.629,316.608 324.535,316.453 322.5,316.511C319.492,316.596 320.014,317.974 320.014,325.5C320.014,409.166 320.021,409.163 319.948,412.5ZM418.937,384.143C420.019,384.133 420.028,384.187 420.104,384.133C420.402,383.917 420.516,382.641 420.528,382.507C420.618,381.495 420.584,355.528 420.548,354.492C420.5,353.118 420.884,352.506 419.501,352.511C418.692,352.514 418.726,352.732 418.605,353.533C418.422,354.744 418.495,379.04 418.528,381.497C418.557,383.702 418.821,383.641 418.937,384.143ZM408.075,372.499C408.081,359.313 408.036,359.321 407.993,354.493C407.774,329.643 407.913,327.269 407.132,326.946C406.964,326.876 405.902,327.327 405.732,327.62C405.235,328.475 404.576,349.62 404.49,351.5C403.579,371.281 404.943,398.616 405.471,405.506C405.588,407.027 405.183,407.383 406.564,408.039C407.394,408.434 407.638,406.702 407.658,406.556C407.796,405.573 408.067,384.987 408.075,372.499ZM395.859,342.496C395.845,341.616 395.75,335.78 395.523,331.499C395.026,322.126 395.085,322.121 394.941,321.318C394.713,320.049 394.853,319.559 393.557,319.695C392.4,319.817 392.606,322.397 391.637,326.537C389.199,336.951 388.92,341.642 386.603,341.183C386.197,341.102 385.693,341.002 384.183,336.612C383.227,333.83 383.371,317.765 381.625,317.284C380.136,316.874 379.492,317.97 377.491,321.495C375.621,324.791 373.239,324.25 372.013,322.974C370.657,321.563 371.039,321.363 370.542,319.489C370.077,317.737 369.191,315.687 365.344,317.133C362.134,318.339 361.931,319.275 357.623,317.273C355.89,316.468 355.727,316.601 350.5,316.569C345.477,316.538 344.176,316.029 343.936,318.556C343.906,318.868 343.91,318.869 343.91,387.5C343.91,416.272 343.794,416.557 344.704,417.191C345.311,417.614 348.194,417.629 348.5,417.631C353.582,417.657 353.619,418.033 358.595,416.953C362.304,416.149 364.334,417.221 365.511,417.438C372.248,418.675 369.427,413.103 372.514,411.524C377.488,408.978 378.329,418.173 381.406,417.257C382.508,416.929 382.784,413.848 382.813,413.531C383.929,401.084 383.137,400.396 385.567,395.544C385.642,395.395 386.237,394.206 387.445,394.621C389.191,395.222 390.729,404.976 391.354,407.54C392.074,410.49 391.952,410.492 392.551,413.483C392.589,413.671 393.011,415.784 394.287,415.148C395.24,414.674 395.13,410.672 395.356,406.493C396.536,384.637 395.99,357.763 395.859,342.496Z"/>
    </g>
    <g transform="matrix(5.625,0,0,5.625,0,0)">
        <path d="M510.382,110.283C510.682,110.226 510.999,109.937 512.52,109.874C513.152,109.848 515.263,109.842 515.502,109.841C528.002,109.808 527.983,109.889 540.501,109.844C560.678,109.77 560.868,109.833 562.543,110.384C566.398,111.654 566.486,111.121 570.429,110.195C575.884,108.915 574.718,112.683 576.376,113.662C580.557,116.13 583.612,111.097 584.568,110.623C587.686,109.077 587.712,115.079 588.31,117.55C589.083,120.739 592.751,121.146 594.458,118.47C597.238,114.109 596.982,112.122 598.546,112.227C599.91,112.319 599.99,116.296 600.459,119.506C601.085,123.799 600.898,123.806 601.227,126.534C601.706,130.506 604.833,132.552 606.723,128.61C609.375,123.081 609.712,117.086 610.474,116.467C611.51,115.627 612.062,116.601 612.128,116.718C612.456,117.296 613.271,128.486 613.345,129.512C614.39,143.857 613.484,145.732 615.623,149.426C616.313,150.618 616.259,151.029 617.608,150.793C618.332,150.666 618.939,148.568 619.002,148.352C620.428,143.426 621.477,135.633 621.627,134.517C623.04,124.025 622.787,123.905 623.355,123.315C623.915,122.734 624.088,122.736 624.649,123.312C625.058,123.733 624.893,123.803 624.951,124.209C624.971,124.346 625.119,124.445 625.134,124.583C625.205,125.232 625.182,125.888 625.206,126.54C625.451,133.082 625.696,133.472 625.775,135.488C627.522,180.436 626.146,241.271 625.69,246.517C624.868,255.986 625.258,256.042 624.931,256.799C624.812,257.074 624.861,257.491 624.597,257.635C623.645,258.155 623.517,257.821 623.072,256.816C622.646,255.853 622.864,254.857 622.511,252.498C621.943,248.687 621.942,248.7 621.909,248.443C621.734,247.068 620.44,236.939 618.868,231.378C618.322,229.448 618.272,228.641 616.396,229.351C615.944,229.522 614.625,232.633 614.419,233.48C613.924,235.514 613.531,253.966 612.324,263.446C612.302,263.619 612.05,265.599 610.449,264.56C609.866,264.181 609.05,256.815 606.454,251.525C605.016,248.593 602.528,250.44 601.882,251.706C601.336,252.775 601.482,252.834 599.823,266.569C599.796,266.792 599.534,268.96 598.47,269.024C597.144,269.104 597.508,267.531 594.438,262.542C594.26,262.252 592.764,259.822 590.59,260.74C587.792,261.922 588.05,265.45 587.642,267.527C587.577,267.859 586.787,271.886 584.55,270.409C584.163,270.154 584.197,270.138 582.472,268.53C582.112,268.195 579.436,265.699 576.434,267.404C574.569,268.464 575.792,272.278 569.496,270.514C564.004,268.976 563.994,270.678 560.475,271.007C559.188,271.127 525.985,270.93 517.488,271.063C511.996,271.149 512.019,270.892 510.408,270.685L509.913,269.193C509.917,268.98 510.067,268.787 510.077,268.573C510.129,267.529 510.063,267.535 510.063,255.5C510.063,113.355 510.071,113.376 509.996,112.593C509.882,111.393 510.022,111.418 510.382,110.283ZM524.051,144.499C524.03,234.752 524.066,234.741 523.985,237.498C523.867,241.542 525.478,241.02 529.514,240.923C532.693,240.847 532.272,239.679 532.285,236.499C532.432,199.183 532.306,151.86 532.287,144.5C532.278,141.19 532.794,139.919 529.489,139.865C528.108,139.842 525.452,139.644 524.563,140.553C524.318,140.804 524.182,141.332 524.163,141.405C524.101,141.645 524.155,141.633 524.051,144.499ZM600.05,168.514C599.566,158.836 599.971,147.567 599.181,146.764C599.023,146.602 597.961,146.583 597.768,146.754C597.057,147.386 596.47,158.813 595.571,166.507C595.367,168.257 594.615,174.697 594.489,188.5C594.323,206.606 595.489,215.519 596.433,224.508C597.035,230.239 597.207,234.71 597.796,235.206C597.956,235.34 599.016,235.325 599.151,235.195C599.501,234.859 599.594,232.734 599.604,232.517C599.956,224.508 599.557,224.513 599.913,216.518C600.084,212.682 600.427,204.992 600.05,168.514ZM553.504,139.941C551.997,139.918 542.202,139.378 538.528,139.746C535.416,140.057 536.036,141.796 536.036,149.5C536.036,232.136 536.045,232.129 535.98,236.499C535.975,236.815 535.932,239.742 536.601,240.4C537.166,240.956 537.265,241.028 546.498,241.017C551.507,241.012 551.49,240.861 556.493,240.913C560.104,240.951 561.501,241.196 562.543,239.529C564.714,236.051 568.116,238.044 569.138,238.917C569.275,239.035 571.385,241.531 573.576,240.641C575.844,239.719 573.923,230.488 577.7,227.81C579.258,226.705 580.352,228.326 580.48,228.516C582.467,231.461 584.104,238.77 584.656,239.369C584.777,239.501 586.175,241.016 586.774,238.628C587.635,235.202 588.865,193.35 588.246,180.514C587.905,173.448 588.378,165.84 587.24,148.52C587.168,147.42 587.05,142.404 586.208,141.883C586.061,141.792 585.027,141.835 584.899,141.934C583.903,142.703 582.399,154.03 578.48,153.853C575.665,153.727 575.23,148.096 575.187,147.527C574.851,143.185 574.831,137.9 570.5,141.5C569.806,142.076 568.181,144.537 565.531,144.268C561.779,143.887 563.461,140.337 559.472,139.786C558.604,139.666 558.607,139.795 553.504,139.941ZM611.576,160.132C611.339,160.228 611.097,159.763 610.86,159.859C610.367,160.059 610.181,164.035 610.164,164.402C609.619,176.024 609.345,221.239 610.807,222.207C610.991,222.329 611.241,222.116 611.462,222.117C611.677,222.118 611.932,222.347 612.1,222.213C612.635,221.785 612.226,212.691 612.285,185.501C612.303,176.763 612.48,163.492 612.293,160.59L611.576,160.132Z"/>
    </g>
    <g transform="matrix(5.625,0,0,5.625,0,0)">
        <path d="M213.626,165.097C213.347,165.205 213.066,164.668 212.787,164.776C212.59,164.852 212.39,166.309 212.371,166.445C212.154,168.022 211.597,196.077 209.696,202.57C208.69,206.005 207.052,204.854 206.565,203.461C205.214,199.605 205.454,195.932 205.435,192.503C205.337,174.537 205.103,174.528 204.934,174.179C204.459,173.19 204.314,172.768 203.434,173.412C202.861,173.832 202.997,176.151 203.011,176.392C203.267,180.755 203.332,197.007 203.349,197.491C203.565,203.437 203.918,203.414 203.918,210.5C203.919,270.685 203.951,270.722 203.636,271.56C203.018,273.201 198.789,273.225 198.239,271.613C198.056,271.076 198.077,271.063 198.077,207.5C198.077,170.729 198.024,170.725 198.501,166.5C199.043,161.7 197.993,161.711 197.659,161.882C197.502,161.962 197.548,162.229 197.428,162.359C197.286,162.512 197,162.514 196.903,162.698C196.885,162.731 196.891,162.733 196.655,164.567C196.614,164.885 195.899,170.438 194.281,167.798C193.621,166.721 193.859,166.648 193.652,165.41C193.537,164.725 193.25,163.714 193.238,163.706C193.035,163.563 192.753,163.842 192.506,163.836C192.257,163.829 191.972,163.513 191.778,163.67C191.473,163.917 191.672,166.292 191.691,166.519C192.099,171.387 192.054,171.394 192.054,260.5C192.054,271.197 192.505,272.492 189.519,272.734C189.203,272.759 181.249,272.844 180.481,272.797C177.518,272.612 177.911,271.132 177.91,262.5C177.904,114.054 177.926,114.034 178.106,113.377C178.624,111.499 181.348,111.846 183.498,111.863C196.034,111.961 214.918,111.801 215.426,111.955C217.896,112.708 216.733,113.8 217.562,133.497C217.842,140.136 217.086,140.312 219.529,146.482C219.811,147.194 219.739,147.376 220.509,147.464C221.743,147.606 222.205,146.406 222.72,143.542C223.799,137.545 223.597,137.535 224.28,131.474C225.285,122.562 224.97,121.3 225.488,114.499C225.508,114.24 225.72,111.444 227.46,111.917C229.285,112.413 229.108,115.151 229.118,115.514C229.627,134.82 229.575,134.818 229.624,136.497C230.27,158.568 229.924,158.569 229.996,160.487C230.586,176.142 229.658,176.314 231.74,182.405C232.108,183.482 232.348,185.195 233.506,185.212C234.697,185.229 234.551,184.837 234.891,183.685C237.23,175.755 238.233,151.957 238.261,151.484C239.172,136.478 238.964,136.49 239.266,121.461C239.342,117.665 241.119,119.446 241.225,119.632C241.645,120.364 242.576,201.034 243.204,214.509C243.23,215.065 243.349,217.605 244.944,221.244C245.283,222.019 247.107,222.925 247.784,220.61C248.592,217.849 249.084,214.036 249.159,213.458C250.221,205.224 251.623,181.608 251.682,179.507C252.29,157.696 251.57,156.076 253.447,156.652C253.503,156.669 254.189,157.497 254.217,157.588C254.364,158.066 254.4,171.406 254.511,176.499C254.72,186.185 254.196,186.165 254.197,193.512C254.201,215.372 254.112,215.368 254.343,216.575C254.529,217.548 254.573,217.763 255.562,217.704C256.611,217.641 256.253,215.392 256.336,207.48C256.498,191.889 255.944,190.445 257.719,184.606C258.238,182.898 259.765,182.831 260.383,184.557C263.446,193.113 262.772,219.616 263.866,220.184C264.081,220.296 264.299,219.912 264.541,219.912C264.745,219.912 264.922,220.296 265.091,220.182C265.333,220.019 265.352,218.587 265.354,218.446C265.442,211.652 264.372,195.419 265.54,194.54C265.801,194.343 266.199,194.464 266.5,194.336C266.978,194.131 267.371,193.756 267.849,193.551C267.785,187.823 268.233,164.69 268.683,156.51C268.994,150.869 268.465,150.76 270.296,145.408C270.388,145.141 270.806,143.774 271.551,143.657C273.327,143.377 273.962,146.408 274.683,152.478C276.877,170.951 277.132,186.51 277.625,205.488C277.795,212.039 277.516,212.149 278.134,212.999C278.254,213.164 278.341,213.6 278.507,213.482C279.492,212.783 279.287,212.609 279.348,211.398C279.969,199.043 279.843,199.06 280.059,180.487C280.115,175.687 280.126,175.695 281.314,120.496C281.459,113.744 281.24,112.038 283.531,111.864C287.873,111.533 287.535,113.126 287.986,117.447C289.878,135.564 289.296,136.479 290.313,159.519C290.455,162.733 290.49,172.802 290.813,173.327C290.939,173.532 291.297,173.507 291.423,173.712C291.545,173.303 291.71,172.908 291.832,172.5C293.034,168.493 292.684,142.758 293.292,118.495C293.422,113.298 293.257,111.892 296.505,111.852C300.471,111.802 301.927,111.863 302.533,112.466C303.362,113.29 303.11,128.711 303.252,131.567C303.331,133.155 303.006,133.864 304.593,133.752C305.577,133.682 305.127,133.077 305.53,115.502C305.58,113.293 305.553,112.257 307.537,111.878C307.717,111.844 324.588,111.851 328.5,111.871C331.49,111.886 332.504,111.496 332.736,114.481C332.839,115.808 332.783,268.971 332.766,269.509C332.646,273.26 331.267,272.725 327.505,272.77C321.446,272.842 319.983,273.088 319.031,271.821C318.468,271.07 318.532,270.952 318.532,230.5C318.532,190.738 318.475,190.723 318.952,187.438C318.47,186.91 317.506,187.028 317.024,186.5C316.503,185.929 316.695,163.302 316.127,162.767C316.116,162.757 314.839,162.756 314.828,162.766C314.094,163.416 314.785,188.269 314.935,189.513C315.192,191.652 315.165,191.66 315.165,259.5C315.165,271.379 315.476,272.326 313.55,272.739C313.134,272.828 308.774,272.824 308.458,272.776C306.184,272.428 306.425,270.938 306.424,262.5C306.42,229.077 306.397,229.082 306.741,224.493C306.269,224.947 305.526,225.046 305.054,225.5C304.699,225.842 304.765,226.54 304.345,226.798C303.978,227.024 303.271,226.883 303.23,221.533C303.169,213.691 302.855,204.927 302.803,203.484C302.757,202.202 302.579,202.226 301.789,187.485C300.955,171.92 299.089,162.443 298.209,161.852C298.011,161.718 296.976,161.712 296.777,161.842C296.616,161.947 294.886,165.553 294.591,168.509C294.08,173.621 294.281,181.079 293.232,220.492C293.217,221.045 293.22,221.038 292.617,260.518C292.613,260.748 292.577,263.102 292.328,263.38C292.126,263.605 291.777,263.697 291.475,263.69C290.579,263.668 290.71,263.366 290.597,262.47C290.434,261.178 289.817,215.393 286.229,200.59C286.186,200.413 285.932,198.643 284.543,198.765C284.128,198.801 283.338,198.871 282.234,203.42C281.091,208.126 281.382,234.196 280.321,258.493C280.053,264.631 280.566,271.423 279.387,272.353C278.895,272.74 277.018,273.113 276.828,270.461C276.622,267.588 276.15,259.487 276.094,258.532C275.763,252.837 275.436,252.88 274.768,245.471C274.08,237.84 273.242,236.795 272.767,236.204C270.85,233.814 269.191,240.462 269.046,242.459C268.789,246.001 268.393,257.211 268.348,258.495C267.951,269.712 269.025,272.601 265.513,272.748C261.396,272.919 259.276,272.444 258.501,272.51C258.172,272.539 257.851,272.635 257.522,272.672C254.624,272.994 254.542,271.552 254.47,269.502C254.294,264.479 254.451,251.332 254.088,250.699C253.971,250.495 252.858,250.306 252.538,250.541C251.836,251.057 252.273,256.716 251.924,264.523C251.735,268.742 252.332,272.101 250.549,272.651C250.545,272.653 243.93,273.353 242.898,272.144C241.841,270.906 242.482,268.444 241.934,252.49C241.759,247.403 241.837,214.089 240.518,213.834C238.34,213.412 240.051,215.231 238.683,241.512C238.675,241.672 237.778,255.313 237.699,256.513C237.001,267.125 236.466,269.349 236.204,270.438C236.094,270.893 236.081,273.16 232.47,272.79C229.949,272.532 230.262,271.231 230.133,263.507C229.545,228.34 229.015,221.818 228.698,185.484C228.693,184.827 228.637,178.419 227.457,177.369C225.914,175.995 227.315,178.546 225.278,214.486C225.164,216.494 224.24,232.795 222.383,239.46C222.337,239.626 221.921,241.121 221.42,241.381C220.177,242.028 219.57,240.654 219.501,240.499C217.558,236.106 218.034,235.076 217.656,218.492C217.282,202.063 217.558,175.789 216.815,173.365C216.36,171.88 215.882,172.301 214.294,171.542C214.347,168.554 214.419,168.574 214.268,165.589C214.054,165.425 213.84,165.261 213.626,165.097Z"/>
    </g>
    <g transform="matrix(5.625,0,0,5.625,0,0)">
        <path d="M751.494,209.511C751.711,209.311 752.041,209.264 752.258,209.065C753.682,207.755 752.672,191.377 753.418,173.497C753.845,163.247 754.022,148.504 754.118,145.482C754.225,142.12 755.881,142.464 759.499,142.535C763.417,142.613 762.474,144.725 763.079,153.537C763.782,163.763 763.173,175.604 763.919,176.116C764.078,176.226 764.296,176.013 764.489,176.014C764.682,176.015 764.9,176.231 765.058,176.12C765.312,175.94 765.45,174.623 765.464,174.489C766.254,166.974 765.691,144.607 766.54,143.524C766.984,142.957 767.638,142.122 775.496,142.581C778.497,142.757 778.482,142.632 781.501,142.543C791.413,142.249 791.755,142.923 792.143,143.686C792.841,145.058 792.888,159.222 793.179,166.515C793.275,168.921 794.478,172.028 795.105,172.905C797.857,176.755 799.032,166.225 799.954,156.539C801.002,145.528 800.76,145.511 800.968,144.573C801.626,141.609 803.818,142.812 804.21,143.646C804.928,145.176 805.023,174.691 805.501,185.5C806.173,200.674 805.319,200.857 807.195,205.64C807.392,206.143 807.873,208.14 809.598,207.675C811.261,207.228 813.315,190.409 814.099,170.469C814.497,160.376 814.595,160.384 814.612,159.506C814.82,149.255 814.39,149.046 815.292,148.142C817.073,146.356 816.934,150.554 816.99,160.472C817.043,169.82 818.627,232.135 818.689,234.496C818.756,237.053 818.967,237.012 820.31,240.598C820.38,240.785 820.987,242.407 822.287,242.118C822.862,241.991 823.216,240.563 823.253,240.411C824.53,235.26 825.225,228.526 825.333,227.484C826.129,219.773 826.011,217.659 826.363,213.489C827.812,196.316 827.198,184.067 827.66,182.592C827.928,181.736 828.213,182.128 828.509,182.128C828.681,182.128 828.858,181.902 829.006,181.989C829.204,182.104 829.251,182.382 829.32,182.6C830.121,185.142 830.719,259.115 831.489,269.501C831.527,270.009 831.655,271.735 833.369,275.593C833.911,276.813 835.211,276.671 835.657,275.608C837.09,272.192 837.886,263.599 837.984,262.542C838.774,254.02 838.633,254.031 839.341,245.487C840.63,229.933 839.947,220.419 840.363,217.457C840.518,216.358 840.492,216.053 841.584,216.096C842.279,216.123 842.402,217.388 842.415,217.52C842.647,219.889 842.837,237.731 842.856,239.489C843.167,268.694 843.442,269.417 843.834,290.491C844.046,301.905 844.822,303.55 841.504,303.628C830.809,303.879 830.596,303.477 830.265,302.638C829.644,301.06 829.843,279.459 829.212,278.677C829.046,278.471 827.929,278.451 827.736,278.665C827.303,279.144 827.501,284.699 827.439,290.495C827.31,302.489 827.18,302.674 826.331,303.247C825.438,303.852 819.574,303.859 818.703,303.223C817.372,302.251 818.019,301.827 817.076,270.526C817.068,270.275 816.984,267.463 815.504,267.821C812.567,268.532 815.166,272.409 811.842,297.543C811.497,300.157 811.499,303.153 809.512,303.56C804.831,304.518 806.035,298.469 805.476,284.501C804.859,269.078 805.452,268.634 804.226,267.961C803.264,267.432 803.18,267.754 790.5,267.685C789.22,267.678 779.081,267.623 774.502,267.678C754.897,267.917 754.42,267.288 753.679,268.595C752.949,269.883 753.161,300.431 753.002,301.415C752.374,305.283 750.88,302.576 750.822,302.394C750.747,302.162 750.727,299.715 750.725,299.482C750.615,286.061 750.303,286.088 749.89,275.478C749.677,269.998 749.955,267.931 747.48,267.749C742.56,267.389 742.064,268.286 741.843,268.686C740.88,270.429 741.192,298.592 740.654,301.528C740.068,304.721 737.251,303.549 736.804,302.375C736.348,301.179 735.317,284.321 733.828,279.374C733.113,276.999 731.743,276.346 730.813,278.657C728.787,283.69 729.207,286.144 729.085,291.483C728.849,301.871 729.347,303.623 725.5,303.645C715.226,303.705 715.043,303.542 714.838,303.01C714.642,302.502 714.838,294.301 714.844,291.511C714.888,271.545 715.975,236.948 716.098,226.494C716.105,225.929 716.132,223.63 717.831,219.651C717.904,219.481 718.52,218.038 719.544,218.091C721.356,218.185 722.188,224.902 722.266,225.531C723.72,237.27 724.188,244.83 724.292,246.513C725.486,265.828 724.783,276.591 725.878,277.074C726.032,277.142 727.124,276.658 727.27,276.396C727.44,276.088 727.468,271.89 727.471,271.498C727.505,266.458 727.814,220.343 728.572,208.504C729.483,194.278 728.027,191.691 730.766,185.644C731.404,184.236 732.357,184.377 732.527,184.402C733.742,184.581 734.586,189.039 734.668,189.472C735.065,191.568 736.486,203.846 736.696,206.484C737.833,220.815 737.645,240.371 738.366,242.604C738.861,244.137 740.149,242.591 740.209,242.407C740.375,241.899 740.084,231.288 740.321,219.493C740.462,212.488 740.548,212.506 740.7,205.505C741.64,162.247 741.786,162.266 741.841,158.506C741.849,157.937 741.899,154.598 743.739,151.656C744.484,150.464 745.276,150.657 745.427,150.694C748.801,151.517 750.211,186.927 750.243,187.521C751.219,205.4 750.393,208.277 750.989,209.244C751.089,209.406 751.395,209.348 751.494,209.511ZM801.074,237.481C801.032,238.338 800.596,240.71 802.519,241.166C804.326,241.596 804.359,238.756 804.362,238.497C804.388,236.258 804.064,236.262 804.241,210.517C804.273,205.937 804.049,205.558 803.831,205.19C803.36,204.393 803.308,204.023 802.498,204.498C801.843,204.883 801.81,214.29 801.694,219.511C801.495,228.506 801.393,228.478 801.074,237.481ZM790.261,187.754C789.976,187.379 789.776,186.944 789.491,186.569C789.257,186.261 789.094,185.75 788.709,185.711C787.838,185.624 788.476,195.933 788.316,199.489C788.239,201.175 787.967,207.2 786.663,220.516C786.575,221.41 785.887,228.43 784.608,231.564C784.304,232.31 783.2,233.38 782.183,231.75C781.889,231.279 780.42,226.988 780.381,224.507C780.32,220.564 780.501,188.331 780.155,187.658C780.096,187.542 779.598,186.571 778.536,187.532C777.865,188.14 778.582,203.116 778.321,223.476C778.286,226.211 778.653,231.682 778.089,232.172C777.934,232.306 777.68,232.164 777.476,232.166C776.293,232.176 776.505,231.723 776.378,230.533C775.924,226.277 776.843,217.94 775.213,198.53C774.663,191.977 775.148,186.709 775.026,185.621C775.011,185.48 774.832,185.407 774.778,185.276C774.415,184.396 774.69,183.977 773.748,183.97C773.639,183.969 773.748,184.061 773.224,185.219C773.153,185.376 772.938,185.462 772.913,185.633C772.887,185.816 773.102,185.975 773.088,186.159C773.075,186.323 772.852,186.421 772.84,186.585C772.826,186.782 773.025,186.953 773.016,187.149C773.008,187.306 772.816,187.409 772.794,187.565C772.782,187.643 772.754,189.518 772.415,191.473C772.361,191.784 771.821,194.898 771.308,195.258C771.18,195.348 770.07,196.128 769.5,194.5C769.415,194.255 769.515,194.252 768.678,191.367C768.522,190.832 768.469,190.245 768.176,189.771C768.018,189.516 766.99,189.47 766.817,189.704C766.266,190.446 767.052,190.69 766.877,201.508C766.266,239.439 765.895,239.62 766.603,240.428C767.4,241.336 768.963,241.128 773.507,241.226C774.626,241.25 774.615,241.205 787.503,241.205C788.516,241.205 791.903,241.656 792.265,239.458C792.33,239.06 791.606,198.114 791.516,196.496C791.514,196.493 790.827,196.161 790.702,195.313C790.587,194.534 790.672,194.406 790.715,194.341C791.171,193.652 791.527,194.068 791.983,193.38C791.641,192.946 790.973,192.853 790.631,192.418C790.399,192.124 790.541,192.092 790.261,187.754ZM761.064,216.55C760.739,213.958 760.695,213.718 760.651,213.474C760.564,212.995 759.754,208.529 759.521,207.495C758.292,202.04 756.458,206.185 756.364,206.434C754.806,210.552 754.753,210.899 754.694,213.504C754.675,214.371 754.135,234.392 754.179,238.508C754.195,239.926 754.44,241.098 756.516,241.148C760.017,241.233 762.466,241.42 762.748,239.538C762.948,238.203 761.224,218.387 761.064,216.55Z"/>
    </g>
    <g transform="matrix(5.625,0,0,5.625,0,0)">
        <path d="M553.499,302.956C567.305,303.092 567.292,302.961 568.491,302.974C580.458,303.103 580.45,302.963 581.49,302.975C589.012,303.065 588.997,302.885 596.504,303.074C598.821,303.132 611.277,302.776 612.604,303.275C613.981,303.792 613.829,304.315 613.824,323.5C613.822,330.985 614.151,332.73 611.551,332.92C609.183,333.094 588.864,332.828 579.502,333.016C578.702,333.032 578.718,332.962 569.502,332.959C551.907,332.955 551.883,332.745 550.402,333.123C548.218,333.681 548.531,334.803 548.531,347.5C548.531,365.901 548.401,366.229 549.338,366.721C550.808,367.493 550.917,367.099 585.502,367.218C591.502,367.239 591.489,367.177 597.5,367.217C600.487,367.237 602.177,366.628 602.182,370.502C602.185,372.26 602.211,391.276 602.176,392.483C602.09,395.411 599.599,394.725 594.51,394.82C592.001,394.867 551.429,394.765 550.534,394.882C548.31,395.174 548.551,397.289 548.54,398.501C548.515,401.14 548.301,424.196 548.569,431.496C548.651,433.71 549.421,434.094 551.505,434.107C563.127,434.18 611.794,434.012 612.588,434.259C614.111,434.732 613.91,435.341 613.91,452.5C613.91,462.32 614.295,463.729 611.544,463.911C608.952,464.083 521.808,463.827 514.501,464.037C510.63,464.148 510.399,463.27 510.356,460.503C510.167,448.584 510.316,448.588 510.33,311.5C510.33,304.901 510.008,303.39 512.428,303.065C513.796,302.882 545.213,303.21 553.499,302.956ZM540.501,434.1C540.812,434.101 544.201,434.107 544.391,434.034C545.977,433.425 545.706,432.672 545.706,422.5C545.706,396.19 545.753,396.118 545.386,395.579C544.708,394.585 541.032,394.858 539.503,394.869C536.138,394.893 536.539,396.124 536.506,399.5C536.481,401.98 536.275,422.729 536.536,430.499C536.671,434.536 538.058,433.947 540.501,434.1ZM540.499,332.954C539.447,333.123 539.446,332.918 538.403,333.085C538.323,333.098 537.733,333.192 537.455,333.442C536.351,334.431 536.497,334.702 536.497,356.5C536.497,365.464 536.115,366.635 538.536,367.137C538.657,367.162 543.483,367.168 543.485,367.168C544.957,367.057 545.3,366.559 545.393,366.425C545.758,365.896 545.706,365.827 545.706,346.5C545.706,334.207 545.922,333.717 544.609,333.25C543.81,332.965 543.797,333.09 540.499,332.954ZM524.8,398.503C524.797,400.293 524.773,429.79 524.815,431.485C524.872,433.737 525.257,433.992 527.499,434.099C530.363,434.236 530.139,431.849 530.142,431.492C530.144,431.366 530.144,397.611 530.142,397.508C530.118,395.824 529.704,394.868 527.499,394.87C524.74,394.873 524.874,395.75 524.8,398.503ZM527.499,332.954C526.663,333.156 524.893,332.676 524.817,335.516C524.759,337.629 524.791,360.341 524.793,362.5C524.798,365.805 524.192,367.157 527.499,367.158C529.754,367.159 530.122,366.181 530.142,364.494C530.143,364.425 530.145,335.576 530.141,335.509C530.056,333.76 530.14,333.393 528.444,332.976C528.138,332.901 527.805,333.029 527.499,332.954Z"/>
    </g>
    <g transform="matrix(5.625,0,0,5.625,0,0)">
        <path d="M473.088,243.5C473.088,255.015 473.457,256.347 470.499,256.49C470.233,256.502 374.315,256.58 372.499,256.533C368.869,256.44 369.413,254.833 369.404,249.5C369.383,237.34 369.15,100.23 369.488,97.498C369.807,94.927 372.178,95.217 377.503,95.411C378.782,95.457 378.761,95.331 393.5,95.454C398.507,95.496 398.494,95.242 403.503,95.426C404.622,95.467 404.619,95.322 417.501,95.466C423.511,95.533 423.492,95.238 429.502,95.447C430.701,95.488 430.697,95.33 444.5,95.461C449.508,95.508 449.487,95.238 454.503,95.422C459.906,95.62 470.818,94.904 472.139,95.939C473.044,96.649 472.939,96.878 472.936,115.5C472.936,122.394 473.132,124.373 471.719,124.924C470.212,125.513 470.149,125.262 451.5,125.259C437.475,125.256 435.869,125.219 434.51,125.187C432.75,125.145 432.752,125.272 412.5,125.258C411.825,125.258 408.432,124.936 407.927,125.922C407.813,126.145 407.829,126.165 407.828,153.5C407.828,155.479 407.579,158.86 408.555,159.377C408.882,159.55 408.891,159.619 430.5,159.619C458.85,159.618 459.026,159.464 459.791,160.181C460.657,160.993 460.555,161.193 460.553,180.5C460.552,184.959 461.076,187.094 457.496,187.127C439.504,187.294 409.299,186.949 408.425,187.353C407.713,187.682 407.828,187.948 407.828,201.5C407.828,225.822 407.812,225.843 407.93,226.068C408.416,226.993 409.179,226.531 416.491,226.742C418.788,226.808 470.599,226.564 471.416,226.858C473.302,227.536 473.088,228.184 473.088,243.5ZM387.501,187.269C385.723,187.299 384.902,187.056 384.055,188.219C383.65,188.776 383.698,188.858 383.698,217.5C383.698,224.999 383.145,226.517 386.498,226.582C388.018,226.611 390.378,226.89 390.531,224.503C390.558,224.08 390.549,189.764 390.537,189.497C390.414,186.796 388.26,187.348 387.501,187.269ZM399.5,125.292C396.902,125.434 395.713,125.214 395.625,129.503C395.617,129.923 395.542,156.403 395.67,157.478C395.974,160.035 398.27,159.633 402.501,159.616C403.904,159.611 405.228,159.733 405.303,157.473C405.316,157.077 405.354,128.579 405.281,127.534C405.113,125.157 403.796,125.363 399.5,125.292ZM387.504,125.296C385.962,125.319 383.958,124.875 383.749,127.523C383.527,130.343 383.685,154.18 383.7,156.498C383.718,159.134 384.167,159.881 388.509,159.596C389.36,159.54 389.398,159.572 389.986,158.953C390.707,158.194 390.546,156.77 390.546,153.5C390.546,126.727 390.621,126.589 390.027,125.937C389.419,125.27 389.293,125.544 387.504,125.296ZM399.5,187.271C396.78,187.318 395.718,187.072 395.63,190.503C395.614,191.115 395.545,221.762 395.666,223.489C395.893,226.732 397.08,226.698 402.501,226.571C406.038,226.489 405.31,225.042 405.319,221.5C405.389,191.236 405.515,191.233 405.225,188.618C405.141,187.859 405.22,187.741 404.525,187.443C403.867,187.162 400.197,187.267 399.5,187.271Z"/>
    </g>
    <g transform="matrix(5.625,0,0,5.625,0,0)">
        <path d="M724.118,354.5C724.107,351.604 724.679,349.48 721.519,349.245C717.166,348.92 716.359,349.568 715.943,350.619C715.633,351.401 715.902,465.121 715.791,475.503C715.753,479.024 716.004,480.193 712.497,480.249C706.566,480.344 702.085,480.597 701.646,479.297C701.628,479.243 701.805,478.788 701.804,477.452C701.797,440.468 701.79,403.484 701.783,366.5C701.783,350.223 702.006,349.298 700.478,349.376C699.797,349.411 699.622,350.415 699.602,350.529C699.525,350.972 699.534,350.965 699.534,467.5C699.534,478.643 699.771,478.649 699.583,479.599C699.461,480.212 697.664,480.274 697.488,480.28C690.883,480.507 690.046,480.239 689.779,478.453C689.474,476.41 689.782,356.825 689.606,352.495C689.415,347.788 685.793,349.47 685.42,350.464C685.18,351.106 685.215,351.123 685.214,474.5C685.214,478.706 685.783,480.236 682.495,480.314C679.283,480.39 677.979,480.398 677.721,478.468C677.529,477.029 677.7,353.4 677.625,351.492C677.509,348.534 675.493,349.232 670.503,349.196C652.79,349.069 652.641,349.477 651.376,348.648C650.779,348.256 650.873,346.263 650.872,340.5C650.868,320.576 650.774,320.318 651.634,319.731C653.015,318.789 660.968,319.613 664.496,319.429C672.119,319.032 672.112,319.726 677.494,319.409C681.33,319.183 681.313,319.25 685.503,319.405C691.013,319.608 691.003,319.114 696.506,319.329C703.016,319.582 703.009,319.089 709.507,319.338C716.023,319.586 716.009,319.102 722.506,319.347C729.51,319.611 729.504,319.136 736.503,319.4C742.005,319.608 741.994,319.106 747.506,319.32C755.26,319.622 756.12,318.692 756.486,320.506C756.811,322.113 756.6,344.423 756.581,346.503C756.566,348.105 756.904,348.496 755.407,349.095C755.28,349.146 752.729,349.161 752.496,349.162C742.116,349.222 731.51,349.165 730.493,349.178C728.829,349.2 728.489,349.025 727.912,350.598C727.633,351.36 727.991,477.101 727.714,478.543C727.296,480.723 724.558,480.71 724.167,478.568C724.113,478.271 724.117,478.276 724.118,354.5Z"/>
    </g>
    <g transform="matrix(5.625,0,0,5.625,0,0)">
        <path d="M463.499,319.251C471.131,319.313 473.329,319.278 473.53,319.311C473.69,319.337 474.878,319.53 475.071,320.643C475.14,321.039 475.133,321.033 475.133,463.5C475.133,479.359 475.275,479.69 474.331,480.155C473.319,480.653 461.204,480.445 460.577,480.257C458.945,479.767 459.168,477.492 459.168,468.5C459.168,324.12 459.166,324.12 459.216,322.488C459.314,319.263 460.266,319.387 463.499,319.251Z"/>
    </g>
    <g transform="matrix(5.625,0,0,5.625,0,0)">
        <path d="M668.501,126.176C675.239,126.308 677.266,125.753 677.673,128.475C677.763,129.082 677.754,129.073 677.754,278.5C677.754,284.642 678.103,286.799 675.466,287.078C673.971,287.237 667.225,287.141 666.509,287.131C663.15,287.084 663.577,285.847 663.547,282.5C663.53,280.636 663.543,145.42 663.544,133.5C663.544,133.323 663.444,127.522 663.867,126.949C663.949,126.837 664.235,126.448 665.461,126.255C665.461,126.255 668.258,126.183 668.501,126.176Z"/>
    </g>
    <g transform="matrix(5.625,0,0,5.625,0,0)">
        <path d="M507.572,110.383C507.638,111.434 507.728,111.415 507.703,112.473C507.701,112.551 507.702,159.323 507.702,244.5C507.702,267.67 507.906,267.66 507.745,269.667C507.72,269.977 507.565,270.266 507.54,270.575C504.542,271.196 504.543,271.141 501.502,271.07C497.959,270.988 497.918,270.032 497.857,266.493C497.724,258.747 497.941,257.308 498.06,256.518C498.342,254.652 498.453,230.64 498.044,226.481C497.819,224.182 497.845,224.176 497.844,125.5C497.844,111.346 497.543,110.61 499.587,109.959C499.781,109.898 505.36,109.758 506.617,110.049C506.945,110.125 507.243,110.307 507.572,110.383Z"/>
    </g>
    <g transform="matrix(5.625,0,0,5.625,0,0)">
        <path d="M651.678,217.487C651.772,215.298 652.541,172.744 651.366,158.496C651.107,155.348 651.27,133.659 651.286,131.5C651.312,128.045 650.887,126.213 654.494,126.178C659.897,126.125 661.011,126.034 661.063,128.56C661.075,129.137 661.062,268.386 661.07,283.494C661.071,285.858 661.414,286.964 658.484,287.115C652.547,287.42 652.098,286.749 651.799,286.302C651.219,285.436 651.285,285.325 651.285,227.5C651.285,222.468 651.289,222.488 651.678,217.487Z"/>
    </g>
    <g transform="matrix(5.625,0,0,5.625,0,0)">
        <path d="M297.499,447.593C297.166,447.585 296.832,447.596 296.498,447.587C293.312,447.503 293.639,446.201 293.624,440.5C293.62,438.652 293.623,294.537 293.623,294.5C293.64,288.157 293.21,286.714 296.503,286.623C301.073,286.496 301.452,286.781 301.791,287.036C302.978,287.929 302.713,289.248 302.711,293.5C302.629,445.875 302.72,445.903 302.514,446.506C301.983,448.057 298.627,447.609 297.499,447.593Z"/>
    </g>
    <g transform="matrix(5.625,0,0,5.625,0,0)">
        <path d="M357.442,111.488C357.314,109.209 357.322,109.219 357.323,105.5C357.325,97.026 356.906,95.379 360.496,95.33C364.534,95.275 366.333,95.424 366.682,96.383C366.9,96.982 366.877,96.993 366.877,232.5C366.877,255.431 366.97,255.648 366.266,256.153C365.304,256.845 358.869,256.515 358.533,256.328C358.111,256.092 358.113,252.331 358.113,247.5C358.101,116.445 358.189,116.442 357.927,113.588L357.442,111.488Z"/>
    </g>
    <g transform="matrix(5.625,0,0,5.625,0,0)">
        <path d="M169.499,272.81C168.942,272.786 166.68,273.145 165.995,271.372C165.844,270.983 165.858,270.971 165.859,122.5C165.859,113.486 165.417,111.956 168.514,111.859C172.608,111.731 173.301,112.09 173.668,112.28C174.629,112.778 174.396,115.903 174.395,118.5C174.366,270.721 174.444,270.736 174.278,271.434C173.844,273.257 170.482,272.798 169.499,272.81Z"/>
    </g>
    <g transform="matrix(5.625,0,0,5.625,0,0)">
        <path d="M447.416,412.502C447.824,403.085 448.167,359.621 447.535,322.503C447.496,320.211 447.195,319.417 449.479,319.27C454.98,318.916 455.36,320.025 455.52,320.492C455.734,321.116 455.711,321.124 455.711,455.5C455.711,479.162 455.811,479.368 455.061,480C454.159,480.76 448.725,480.33 448.573,480.261C446.87,479.478 447.106,478.184 447.106,469.5C447.106,416.417 447.068,416.412 447.416,412.502Z"/>
    </g>
    <g transform="matrix(5.625,0,0,5.625,0,0)">
        <path d="M499.513,464.006C499.462,463.855 498.869,462.121 498.869,462.121C498.843,461.752 498.978,461.771 498.968,457.494C498.88,417.477 499.181,322.727 498.77,320.561C498.469,318.976 498.187,318.984 498.269,307.498C498.285,305.299 498.033,303.208 500.533,302.969C500.651,302.958 504.774,302.899 505.603,303.124C507.084,303.526 507.082,305.153 507.103,305.518C507.119,305.801 507.107,417.42 507.11,457.5C507.11,459.623 507.311,462.64 506.487,463.486C505.79,464.202 500.392,463.997 499.513,464.006Z"/>
    </g>
    <g transform="matrix(5.625,0,0,5.625,0,0)">
        <path d="M485.495,474.5C485.413,478.565 485.965,480.37 482.498,480.441C481.545,480.46 479.01,480.743 478.236,479.717C477.852,479.209 477.896,479.131 477.896,432.5C477.896,320.723 477.869,320.689 478.118,320.264C478.836,319.04 479.086,319.298 480.497,319.288C482.39,319.274 484.071,319.036 484.967,320.158C485.576,320.922 485.508,321.061 485.508,390.5C485.504,418.5 485.499,446.5 485.495,474.5Z"/>
    </g>
    <g transform="matrix(5.625,0,0,5.625,0,0)">
        <path d="M485.862,158.532C485.626,143.593 485.777,130.899 485.806,128.496C485.842,125.462 486.401,125.524 486.459,122.501C486.534,118.62 486.526,112.394 486.525,111.515C486.525,111.163 486.305,110.764 486.482,110.459C486.838,109.846 492.304,109.359 493.12,110.732C493.506,111.381 493.468,111.444 493.468,166.5C493.468,224.082 493.488,224.082 493.301,227.504C493.194,229.466 493.255,251.42 493.261,253.5C493.273,258.002 493.468,257.984 493.468,262.5C493.468,269.026 493.866,270.569 491.591,270.945C491.42,270.973 487.955,271.137 487.563,271.036C485.863,270.594 485.95,270.237 485.835,268.484C485.638,265.48 485.835,258.31 485.859,257.425C486.598,254.382 486.524,254.354 486.523,236.5C486.523,229.123 486.548,229.133 486.078,226.456C485.782,223.965 485.801,223.967 485.801,207.5C485.801,189.895 485.784,189.901 485.923,187.438C486.191,185.541 486.368,184.292 486.225,163.5C486.207,160.945 486.208,160.96 485.862,158.532Z"/>
    </g>
    <g transform="matrix(5.625,0,0,5.625,0,0)">
        <path d="M642.497,126.177C643.355,126.202 645.437,125.857 646.107,127.597C646.42,128.409 645.971,166.078 646.075,206.499C646.175,245.668 646.225,245.652 646.198,282.5C646.195,285.786 646.776,287.085 643.492,287.138C642.221,287.158 639.788,287.384 639.357,285.533C639.198,284.848 639.245,247.661 639.329,246.502C640.556,229.496 639.992,158.443 639.797,144.507C639.683,136.404 639.22,136.433 639.27,129.498C639.297,125.853 640.551,126.375 642.497,126.177Z"/>
    </g>
    <g transform="matrix(5.625,0,0,5.625,0,0)">
        <path d="M338.818,171.5L338.818,131.5C338.818,113.225 338.721,113.06 339.402,112.396C340.148,111.67 343.209,111.831 343.607,112.239C343.85,112.488 343.74,112.923 343.824,113.262C343.967,113.84 343.916,113.835 343.874,114.436C343.849,114.784 343.897,115.134 343.903,115.483C344.251,135.148 343.742,253.484 344.167,255.417C344.567,257.237 344.723,257.23 344.683,265.501C344.657,270.926 345.139,272.774 341.497,272.754C339.837,272.745 339.499,272.94 338.899,271.401C338.808,271.167 338.818,271.158 338.818,171.5Z"/>
    </g>
    <g transform="matrix(5.625,0,0,5.625,0,0)">
        <path d="M345.554,105.5C345.55,104.86 345.511,98.334 345.555,97.504C345.687,95.048 347.945,95.319 348.501,95.323C351.578,95.346 351.366,96.664 351.367,99.5C351.37,111.82 351.4,235.47 351.293,253.498C351.276,256.51 350.518,256.74 347.498,256.528C346.673,256.471 346.392,256.639 346.297,255.814C346.215,255.1 346.338,118.327 346.227,114.496C346.166,112.404 345.72,111.672 345.694,111.546C345.536,110.789 345.552,105.984 345.554,105.5Z"/>
    </g>
    <g transform="matrix(5.625,0,0,5.625,0,0)">
        <path d="M689.768,251.5C689.768,260.833 689.768,270.167 689.768,279.5C689.767,281.848 689.998,286.112 688.652,286.761C685.351,288.352 685.248,284.84 685.238,284.513C685.236,284.435 685.213,129.079 685.251,128.475C685.435,125.595 689.21,125.383 689.679,128.474C689.779,129.139 689.768,129.131 689.768,251.5Z"/>
    </g>
    <g transform="matrix(5.625,0,0,5.625,0,0)">
        <path d="M286.141,399.5C286.141,446.204 286.177,446.263 285.854,446.74C285.002,447.997 283.54,447.806 283.342,445.516C283.32,445.268 283.309,288.832 283.348,288.48C283.638,285.895 286.039,286.156 286.131,288.53C286.142,288.819 286.141,288.819 286.141,399.5Z"/>
    </g>
    <g transform="matrix(5.625,0,0,5.625,0,0)">
        <path d="M497.289,463.412C497.979,473.14 497.248,479.304 497.22,479.373C496.806,480.379 494.725,481.171 494.332,478.529C494.22,477.778 494.292,418.452 494.275,325.5C494.274,323.612 493.956,319.816 495.48,319.438C497.046,319.049 497.28,320.333 497.31,320.5C497.366,320.808 496.894,321.007 496.849,321.317C496.664,322.598 496.887,322.599 496.887,337.5C496.887,462.112 496.877,462.111 496.963,462.535C497.024,462.841 497.227,463.106 497.289,463.412Z"/>
    </g>
    <g transform="matrix(5.625,0,0,5.625,0,0)">
        <path d="M710.965,274.467C711.463,280.63 712.003,282.721 712.27,299.511C712.275,299.795 712.324,302.882 712.2,303.057C711.547,303.983 704.337,303.751 703.581,303.345C702.253,302.63 702.519,301.117 702.663,291.502C702.71,288.331 702.777,288.352 703.1,286.5C703.51,284.156 703.175,259.371 703.928,256.68C703.988,256.468 705.223,252.96 705.453,252.467C706.064,251.153 707.313,251.522 707.713,252.318C709.893,256.655 710.707,270.362 710.965,274.467Z"/>
    </g>
    <g transform="matrix(5.625,0,0,5.625,0,0)">
        <path d="M636.355,135.174C636.741,135.676 636.988,135.346 637.375,135.849C637.533,136.054 637.384,136.068 637.431,136.571C637.459,136.867 637.811,139.48 637.761,146.479C637.692,156.009 637.729,155.995 637.765,183.498C637.838,239.498 637.868,239.485 637.389,244.328L636.52,245.439C636.385,245.271 636.039,245.416 635.904,245.249C635.658,244.944 635.638,242.706 635.636,242.484C635.522,229.351 631.525,198.448 635.073,149.468C635.997,136.722 635.29,136.624 635.789,135.634C635.898,135.417 636.245,135.391 636.355,135.174Z"/>
    </g>
    <g transform="matrix(5.625,0,0,5.625,0,0)">
        <path d="M700.267,286.849C700.17,286.644 699.895,286.561 699.798,286.356C699.515,285.757 699.541,285.711 699.541,147.5C699.541,127.066 699.391,126.46 700.47,126.371C702.179,126.23 701.853,129.686 701.853,130.5C701.869,254.901 701.756,254.901 701.716,255.492C701.063,265.093 701.793,279.036 701.216,285.5L700.267,286.849Z"/>
    </g>
    <g transform="matrix(5.625,0,0,5.625,0,0)">
        <path d="M357.442,111.488L357.927,113.588C357.235,114.372 356.882,113.879 356.199,114.653C356.18,114.674 356.2,114.669 356.205,115.539C356.218,118.232 356.214,127.611 356.214,145.5C356.214,253.739 356.181,253.758 356.49,255.496C356.948,258.073 356.769,270.77 356.563,271.525C356.193,272.879 354.201,273.408 353.999,270.467C353.826,267.945 353.971,260.377 353.987,259.5C354.348,240.689 354.017,120.057 354.141,114.473C354.212,111.316 355.926,111.739 357.442,111.488Z"/>
    </g>
    <g transform="matrix(5.625,0,0,5.625,0,0)">
        <path d="M639.557,319.681C640.074,319.576 640.018,319.265 642.499,319.274C646.43,319.29 648.19,319.037 648.311,321.527C648.312,321.546 648.342,346.824 648.293,347.451C648.116,349.746 645.604,349.196 643.502,349.184C640.134,349.164 638.795,349.847 638.681,346.492C638.637,345.162 638.559,334.436 638.733,333.457C638.79,333.139 638.957,332.846 639.014,332.528C639.713,326.128 638.763,326.088 639.557,319.681Z"/>
    </g>
    <g transform="matrix(5.625,0,0,5.625,0,0)">
        <path d="M443.964,413.332C443.644,408.868 443.89,401.675 443.584,396.495C442.572,379.366 442.935,347.703 443.435,338.496C444.044,327.275 443.662,327.279 443.83,321.55C443.835,321.376 443.88,319.82 444.482,319.473C445.977,318.609 445.655,319.838 446.123,321.5C446.045,321.816 445.711,322.028 445.633,322.343C445.468,323.018 445.929,323.027 445.826,337.477C445.589,370.901 446.115,410.466 445.534,411.575C445.463,411.71 445.219,411.41 444.026,412.744C443.81,412.986 444.188,413.081 443.964,413.332Z"/>
    </g>
    <g transform="matrix(5.625,0,0,5.625,0,0)">
        <path d="M214.037,178.538L215.498,179.5C215.596,180.812 215.555,180.812 215.582,200.502C215.64,241.914 216.061,241.9 216.062,245.5C216.065,271.409 216.646,272.859 214.474,272.687C213.088,272.578 213.291,271.827 213.291,253.5C213.291,227.605 213.122,191.158 214.037,178.538Z"/>
    </g>
    <g transform="matrix(5.625,0,0,5.625,0,0)">
        <path d="M762.496,349.187C762.341,349.184 760.558,349.158 760.558,349.158C758.925,348.652 759.187,348.22 759.169,346.512C759.147,344.421 758.914,321.782 759.292,320.381C759.657,319.03 761.947,319.399 762.502,319.411C762.792,319.418 765.541,319.481 766.09,319.966C766.851,320.639 766.83,320.826 766.815,340.5C766.811,345.827 766.999,348.319 765.707,348.863C765.169,349.089 764.577,349.149 764.476,349.159C763.481,349.26 763.491,349.086 762.496,349.187Z"/>
    </g>
    <g transform="matrix(5.625,0,0,5.625,0,0)">
        <path d="M609.5,367.219C610.881,367.261 613.022,366.809 613.274,369.524C613.383,370.699 613.321,391.134 613.313,391.494C613.23,395.106 612.081,394.981 608.475,394.785C606.448,394.674 606.372,393.381 606.317,392.513C606.304,392.307 606.308,369.699 606.316,369.488C606.429,366.734 608.518,367.292 609.5,367.219Z"/>
    </g>
    <g transform="matrix(5.625,0,0,5.625,0,0)">
        <path d="M851.949,283.529C853.269,264.811 852.737,253.604 853.28,251.377C853.667,249.789 855.078,250.639 855.12,250.704C855.455,251.231 855.36,251.268 855.388,258.505C855.469,279.189 856.199,299.178 855.897,301.561C855.455,305.048 850.858,303.251 850.775,303.18C849.588,302.17 850.987,297.154 851.949,283.529Z"/>
    </g>
    <g transform="matrix(5.625,0,0,5.625,0,0)">
        <path d="M627.486,319.41C627.88,319.379 627.968,319.268 629.497,319.251C631.586,319.228 632.263,319.225 632.907,320.245C633.246,320.782 633.179,322.478 633.179,322.502C633.254,344.588 633.3,344.576 633.264,346.495C633.212,349.258 632.29,349.359 628.534,349.148C626.274,349.022 626.565,346.845 626.561,345.5C626.525,333.557 626.727,333.563 626.83,332.351C626.929,331.974 627.255,331.999 627.318,330.505C627.349,329.782 627.549,325.071 627.394,321.469C627.375,321.039 627.255,320.614 627.274,320.184C627.286,319.917 627.474,319.677 627.486,319.41Z"/>
    </g>
    <g transform="matrix(5.625,0,0,5.625,0,0)">
        <path d="M625.931,455.5C625.9,461.549 626.382,463.742 623.526,463.915C620.789,464.08 620.742,463.239 620.739,460.499C620.736,458.58 620.71,437.296 620.746,436.514C620.909,433.006 625.166,434.08 625.661,435.431C625.967,436.267 625.933,437.929 625.931,455.5Z"/>
    </g>
    <g transform="matrix(5.625,0,0,5.625,0,0)">
        <path d="M466.909,171.5C466.909,170.78 466.909,162.537 466.91,162.505C466.988,160.082 467.665,159.645 469.501,159.63C472.875,159.602 472.317,161.568 472.317,167.5C472.317,185.664 472.433,185.842 471.608,186.623C470.826,187.362 467.975,187.107 467.454,186.544C466.809,185.847 466.909,185.726 466.909,171.5Z"/>
    </g>
    <g transform="matrix(5.625,0,0,5.625,0,0)">
        <path d="M625.631,319.917C624.308,323.257 625.251,322.198 625.115,329.467C625.109,329.774 625.069,330.08 625.09,330.386C625.109,330.662 625.216,331.244 625.186,331.905C625.172,332.211 624.683,333.285 624.253,333.42C623.709,333.591 621.281,333.766 621.118,330.524C621.104,330.252 621.109,305.685 621.116,305.476C621.242,301.795 624.886,303.293 625.25,303.716C625.756,304.304 625.805,306.265 625.811,306.491C626.086,317.517 625.952,315.835 626.121,316.777C626.144,316.909 625.895,319.248 625.631,319.917Z"/>
    </g>
    <g transform="matrix(5.625,0,0,5.625,0,0)">
        <path d="M483.478,226.819C483.657,227.185 484.332,227.106 484.512,227.472C484.678,227.81 484.359,228.213 484.346,228.589C484.28,230.501 484.735,230.496 484.406,252.495C484.366,255.187 484.539,255.2 484.449,255.415C484.268,255.841 483.672,255.995 483.491,256.421C483.166,256.377 482.832,256.496 482.507,256.451C480.949,256.238 480.866,254.673 480.855,254.466C480.828,253.949 480.811,228.758 480.863,228.546C481.181,227.247 481.242,227.141 482.538,226.807C482.842,226.728 483.174,226.897 483.478,226.819Z"/>
    </g>
    <g transform="matrix(5.625,0,0,5.625,0,0)">
        <path d="M697.026,294.568C697.763,301.589 698.478,303.546 695.509,303.653C691.387,303.802 690.445,303.637 690.475,300.5C690.569,290.632 690.859,290.645 691.358,289.442C692.64,286.35 692.99,285.52 693.471,285.421C694.7,285.167 694.759,285.452 695.262,286.616C695.549,287.28 696.897,293.929 697.026,294.568Z"/>
    </g>
    <g transform="matrix(5.625,0,0,5.625,0,0)">
        <path d="M484.916,104.5C484.907,108.639 484.83,108.619 484.447,111.506C484.327,112.409 484.416,119.475 484.332,122.481C484.272,124.644 484.67,125.722 482.533,125.352C480.883,125.067 481.137,124.313 481.135,109.5C481.133,97.948 481.066,96.993 481.486,96.49C482.253,95.57 484.391,95.403 484.807,97.431C484.937,98.064 484.916,104.318 484.916,104.5Z"/>
    </g>
    <g transform="matrix(5.625,0,0,5.625,0,0)">
        <path d="M775.748,339.5C775.748,324.816 775.745,321.97 775.765,321.525C775.878,319.01 778.453,318.586 778.828,321.447C778.951,322.384 778.89,346.059 778.868,346.523C778.856,346.79 778.712,349.812 776.691,349.053C775.523,348.614 775.748,346.311 775.748,339.5Z"/>
    </g>
    <g transform="matrix(5.625,0,0,5.625,0,0)">
        <path d="M625.321,390.499C625.297,391.684 625.387,393.134 624.956,393.822C623.806,395.658 622.607,394.043 622.452,393.519C622.294,392.984 622.274,392.973 622.281,371.5C622.281,371.217 622.151,368.5 622.791,367.778C623.923,366.5 624.876,368.02 624.97,368.17C625.341,368.763 625.333,368.824 625.321,390.499Z"/>
    </g>
    <g transform="matrix(5.625,0,0,5.625,0,0)">
        <path d="M638.082,447.5C638.082,461.823 638.183,462.976 637.531,463.534C636.494,464.422 635.898,463.418 635.828,463.299C635.306,462.418 635.614,435.725 635.649,435.545C635.946,433.99 637.492,434.161 637.836,435.311C638.143,436.341 638.082,440.121 638.082,447.5Z"/>
    </g>
    <g transform="matrix(5.625,0,0,5.625,0,0)">
        <path d="M868.169,299.503C868.08,302.092 868.262,302.143 867.866,302.759C866.812,304.4 865.783,303.021 865.645,302.45C865.437,301.596 865.83,285.919 865.939,285.643C866.561,284.06 867.501,284.04 868.078,285.624C868.113,285.72 868.166,299.064 868.169,299.503Z"/>
    </g>
    <g transform="matrix(5.625,0,0,5.625,0,0)">
        <path d="M319.445,170.511C319.155,170.001 318.295,170.01 318.005,169.5C317.858,169.24 318.163,168.86 318.418,168.703C319.043,168.318 319.314,169.467 319.337,169.565C319.41,169.874 319.372,170.202 319.445,170.511Z"/>
    </g>
</svg>
