<?xml version="1.0" encoding="UTF-8" standalone="no"?><!DOCTYPE svg PUBLIC "-//W3C//DTD SVG 1.1//EN" "http://www.w3.org/Graphics/SVG/1.1/DTD/svg11.dtd"><svg width="100%" height="100%" viewBox="0 0 5760 3240" version="1.1" xmlns="http://www.w3.org/2000/svg" xmlns:xlink="http://www.w3.org/1999/xlink" xml:space="preserve" xmlns:serif="http://www.serif.com/" style="fill-rule:evenodd;clip-rule:evenodd;stroke-linejoin:round;stroke-miterlimit:2;"><g><path d="M2300.939,2421.388c-0.53,5.881 -6.35,70.488 -8.767,73.287c-0.702,0.813 -7.96,9.216 -12.483,-4.954c-1.197,-3.751 -2.798,-16.039 -15.411,-40.154c-7.017,-13.415 -30.937,-27.782 -36.241,22.312c-2.368,22.367 -4.331,41.04 -14.62,39.791c-8.999,-1.092 -19.97,-38.426 -45.322,-29.08c-18.15,6.691 -6.349,44.565 -39.601,30.218c-21.653,-9.343 -22.971,-11.166 -44.61,-1.59c-20.307,8.986 -21.586,0.015 -73.084,3.558c-45.273,3.115 -118.897,2.939 -129.239,2.915c-12.492,-0.03 -73.375,0.477 -135.003,0.027c-19.422,-0.142 -26.221,1.955 -26.799,-17.456c-1.007,-33.804 -0.318,-771.029 -0.256,-838.075c0.037,-39.845 -1.403,-48.046 10.317,-49.693c6.702,-0.942 186.711,0.685 326.12,-0.411c27.946,-0.22 25.854,8.127 39.152,11.575c26.164,6.785 41.991,-21.724 55.166,-5.428c6.351,7.855 4.786,27.593 24.042,30.376c17.954,2.595 32.983,-27.567 35.255,-29.322c10.278,-7.94 13.701,8.143 13.982,9.464c6.02,28.283 4.172,61.635 23.472,63.2c21.037,1.707 31.941,-53.904 34.891,-57.045c0.678,-0.722 8.492,-9.041 11.654,4.179c0.414,1.732 4.382,36.731 4.744,39.927c4.426,39.038 1.654,77.368 15.829,85.221c14.429,7.994 19.347,-9.025 26.795,-35.087c7.875,-27.555 10.789,-63.422 13.885,-66.3c0.54,-0.502 5.25,-4.879 9.208,0.195c2.113,2.709 8.602,100.669 10.889,207.31c0.706,32.899 1.517,32.844 7.695,56.094c1.81,6.81 3.978,26.805 5.382,28.095c8.081,7.427 10.792,-4.546 11.009,-5.506c2.364,-10.442 3.594,-35.45 12.043,-89.868c1.319,-8.494 0.688,-8.49 11.533,-106.822c1.522,-13.798 0.655,-47.666 9.611,-42.984c7.721,4.036 5.005,6.133 5.274,14.877c1.957,63.689 3.983,63.533 5.248,185.465c0.366,35.31 2.784,146.618 -1.325,399.296c-0.124,7.647 -0.926,7.578 -3.951,95.514c-0.026,0.749 0.53,11.104 -3.666,13.237c-7.231,3.676 -8.273,-1.729 -9.938,-24.57c-3.548,-48.662 -6.008,-53.579 -10.181,-106.379c-1.026,-12.974 -9.649,-73.742 -10.715,-84.392c-0.302,-3.01 -3.469,-34.63 -6.369,-37.277c-0.63,-0.575 -6.422,-0.923 -7.249,-0.393c-2.963,1.9 -0.774,3.032 -9.783,42.426c-2.196,9.603 -4.029,9.497 -5.506,79.33c-2.015,95.28 -8.676,177.797 -9.836,179.371c-4.077,5.528 -9.012,0.765 -9.562,0.234c-2.058,-1.986 -14.86,-97.808 -29.318,-105.337c-6.501,-3.385 -18.559,1.956 -21.57,21.464c-1.424,9.226 -2.649,36.025 -2.793,39.163Zm-434.33,-89.896c0.98,5.76 -2.178,17.477 14.942,17.739c24.403,0.373 35.233,0.579 36.955,-7.356c0.634,-2.92 0.455,-2.97 0.476,-522.188c0.001,-18.679 1.396,-34.294 -4.658,-37.392c-2.343,-1.199 -40.202,-5.694 -44.793,3.104c-3.434,6.582 -3.027,7.072 -3.027,259.288l0,146.25c-0,115.204 -0.053,115.13 0.104,140.555Zm-66.9,-11.181c0.144,21.701 -1.65,29.771 20.012,28.812c16.32,-0.722 13.397,-8.604 13.397,-51.312c0,-505.533 0.014,-505.541 -0.115,-506.539c-1.342,-10.354 -7.493,-11.224 -18.939,-10.901c-16.922,0.478 -13.987,8.231 -13.987,50.564c-0,470.624 0.041,470.603 -0.368,489.374Zm556.809,-159.507c6.087,-0.055 6.141,0.248 6.567,-0.06c1.676,-1.214 2.318,-8.392 2.385,-9.145c0.509,-5.691 0.317,-151.754 0.113,-157.585c-0.271,-7.729 1.893,-11.171 -5.892,-11.141c-4.551,0.018 -4.36,1.244 -5.04,5.751c-1.027,6.811 -0.614,143.474 -0.431,157.296c0.164,12.404 1.65,12.06 2.298,14.884Zm-61.096,-65.497c0.032,-74.171 -0.222,-74.126 -0.462,-101.284c-1.233,-139.782 -0.452,-153.137 -4.841,-154.954c-0.947,-0.392 -6.923,2.147 -7.88,3.796c-2.791,4.808 -6.499,123.747 -6.986,134.319c-5.123,111.27 2.552,265.032 5.523,303.787c0.656,8.553 -1.62,10.555 6.145,14.249c4.671,2.222 6.04,-7.523 6.155,-8.344c0.776,-5.526 2.302,-121.325 2.345,-191.568Zm-68.715,-168.77c-0.08,-4.95 -0.613,-37.773 -1.89,-61.856c-2.795,-52.724 -2.462,-52.749 -3.274,-57.266c-1.284,-7.139 -0.497,-9.896 -7.785,-9.129c-6.51,0.685 -5.347,15.198 -10.798,38.483c-13.714,58.579 -15.285,84.965 -28.319,82.382c-2.283,-0.452 -5.116,-1.014 -13.608,-25.708c-5.382,-15.65 -4.568,-106.016 -14.389,-108.722c-8.379,-2.308 -12.001,3.857 -23.254,23.686c-10.521,18.54 -23.92,15.497 -30.814,8.322c-7.627,-7.938 -5.481,-9.063 -8.279,-19.605c-2.616,-9.855 -7.594,-21.383 -29.237,-13.25c-18.055,6.785 -19.198,12.046 -43.431,0.787c-9.745,-4.528 -10.665,-3.781 -40.067,-3.963c-28.253,-0.175 -35.57,-3.036 -36.921,11.177c-0.167,1.757 -0.147,1.761 -0.147,387.811c-0,161.842 -0.65,163.443 4.464,167.009c3.416,2.382 19.635,2.467 21.355,2.476c28.588,0.15 28.793,2.262 56.783,-3.809c20.866,-4.526 32.282,1.507 38.906,2.724c37.892,6.961 22.028,-24.383 39.39,-33.268c27.98,-14.318 32.707,37.406 50.016,32.252c6.201,-1.846 7.756,-19.177 7.916,-20.962c6.28,-70.012 1.82,-73.881 15.491,-101.172c0.422,-0.842 3.773,-7.532 10.563,-5.194c9.823,3.381 18.475,58.248 21.991,72.668c4.046,16.592 3.364,16.605 6.73,33.428c0.212,1.062 2.59,12.945 9.768,9.371c5.361,-2.669 4.742,-25.181 6.011,-48.687c6.635,-122.938 3.568,-274.106 2.83,-359.985Z" style="fill:#fff;"/><path d="M2870.901,620.344c1.685,-0.323 3.469,-1.948 12.023,-2.304c3.555,-0.148 15.431,-0.18 16.773,-0.184c70.313,-0.189 70.206,0.27 140.621,0.013c113.492,-0.414 114.562,-0.061 123.986,3.042c21.686,7.141 22.181,4.143 44.359,-1.064c30.686,-7.204 24.124,13.994 33.449,19.499c23.521,13.884 40.703,-14.428 46.079,-17.092c17.542,-8.695 17.687,25.067 21.054,38.967c4.344,17.935 24.979,20.227 34.578,5.172c15.642,-24.532 14.197,-35.705 22.996,-35.115c7.671,0.515 8.123,22.887 10.759,40.94c3.526,24.15 2.471,24.189 4.322,39.535c2.695,22.344 20.283,33.854 30.918,11.678c14.915,-31.102 16.808,-64.822 21.096,-68.302c5.826,-4.73 8.933,0.753 9.305,1.407c1.843,3.251 6.427,66.198 6.848,71.966c5.877,80.691 0.781,91.239 12.813,112.018c3.882,6.705 3.579,9.018 11.165,7.69c4.072,-0.713 7.489,-12.517 7.841,-13.732c8.021,-27.71 13.922,-71.541 14.767,-77.822c7.945,-59.015 6.521,-59.69 9.721,-63.012c3.148,-3.268 4.118,-3.254 7.274,-0.014c2.305,2.366 1.372,2.763 1.7,5.042c0.111,0.773 0.944,1.329 1.029,2.106c0.4,3.651 0.269,7.34 0.406,11.01c1.378,36.796 2.758,38.989 3.199,50.329c9.825,252.833 2.087,595.033 -0.476,624.539c-4.627,53.261 -2.433,53.578 -4.272,57.837c-0.669,1.549 -0.394,3.893 -1.875,4.702c-5.355,2.927 -6.077,1.047 -8.58,-4.609c-2.396,-5.416 -1.173,-11.016 -3.154,-24.289c-3.2,-21.434 -3.203,-21.36 -3.387,-22.806c-0.988,-7.738 -8.263,-64.713 -17.11,-95.993c-3.07,-10.855 -3.348,-15.394 -13.905,-11.398c-2.541,0.962 -9.961,18.461 -11.121,23.225c-2.785,11.441 -4.995,115.232 -11.78,168.554c-0.124,0.974 -1.541,12.113 -10.548,6.266c-3.281,-2.13 -7.872,-43.561 -22.473,-73.32c-8.091,-16.492 -22.082,-6.103 -25.719,1.021c-3.07,6.014 -2.248,6.342 -11.581,83.604c-0.151,1.252 -1.624,13.448 -7.608,13.808c-7.463,0.448 -5.411,-8.398 -22.68,-36.462c-1.002,-1.629 -9.416,-15.301 -21.648,-10.136c-15.739,6.647 -14.286,26.491 -16.579,38.179c-0.366,1.866 -4.811,24.519 -17.393,16.209c-2.177,-1.438 -1.986,-1.524 -11.69,-10.572c-2.022,-1.885 -17.076,-15.922 -33.966,-6.329c-10.49,5.958 -3.608,27.414 -39.025,17.493c-30.892,-8.654 -30.945,0.918 -50.742,2.769c-7.237,0.677 -194.008,-0.433 -241.8,0.316c-30.892,0.484 -30.763,-0.961 -39.828,-2.128l-2.785,-8.388c0.024,-1.203 0.868,-2.286 0.928,-3.488c0.291,-5.876 -0.081,-5.839 -0.081,-73.537c-0,-799.565 0.045,-799.447 -0.375,-803.852c-0.644,-6.752 0.144,-6.611 2.172,-12.992Zm76.884,192.463c-0.119,507.671 0.087,507.608 -0.368,523.116c-0.667,22.752 8.394,19.816 31.1,19.271c17.88,-0.43 15.515,-6.997 15.585,-24.885c0.828,-209.903 0.119,-476.097 0.009,-517.497c-0.05,-18.62 2.857,-25.77 -15.734,-26.073c-7.773,-0.126 -22.709,-1.243 -27.711,3.871c-1.378,1.409 -2.145,4.38 -2.251,4.79c-0.348,1.349 -0.047,1.287 -0.632,17.406Zm427.495,135.083c-2.72,-54.437 -0.441,-117.826 -4.886,-122.345c-0.892,-0.907 -6.865,-1.016 -7.947,-0.056c-4.004,3.555 -7.305,67.834 -12.358,111.112c-1.149,9.842 -5.379,46.067 -6.09,123.711c-0.934,101.847 5.626,151.984 10.938,202.543c3.387,32.236 4.352,57.387 7.664,60.176c0.902,0.759 6.865,0.671 7.625,-0.06c1.967,-1.891 2.493,-13.842 2.547,-15.063c1.982,-45.05 -0.266,-45.024 1.74,-89.992c0.963,-21.581 2.892,-64.837 0.769,-270.025Zm-261.821,-160.723c-8.474,-0.13 -63.571,-3.165 -84.241,-1.097c-17.505,1.752 -14.015,11.534 -14.015,54.867c-0.003,464.83 0.052,464.79 -0.316,489.368c-0.027,1.777 -0.273,18.242 3.49,21.942c3.181,3.129 3.74,3.533 55.671,3.475c28.181,-0.032 28.082,-0.878 56.227,-0.585c20.308,0.212 28.168,1.59 34.026,-7.79c12.216,-19.559 31.35,-8.35 37.097,-3.439c0.774,0.661 12.64,14.705 24.966,9.697c12.755,-5.183 1.954,-57.109 23.196,-72.172c8.764,-6.215 14.916,2.902 15.638,3.972c11.178,16.565 20.386,57.679 23.489,61.044c0.685,0.743 8.543,9.265 11.918,-4.166c4.843,-19.274 11.759,-254.691 8.275,-326.891c-1.918,-39.748 0.745,-82.542 -5.656,-179.97c-0.406,-6.185 -1.067,-34.398 -5.806,-37.332c-0.825,-0.511 -6.643,-0.268 -7.363,0.288c-5.602,4.328 -14.062,68.038 -36.109,67.046c-15.831,-0.712 -18.277,-32.383 -18.524,-35.583c-1.886,-24.424 -2.001,-54.152 -26.364,-33.906c-3.902,3.243 -13.04,17.088 -27.946,15.573c-21.107,-2.144 -11.647,-22.112 -34.084,-25.21c-4.883,-0.674 -4.866,0.046 -33.57,0.869Zm326.656,113.575c-1.331,0.541 -2.698,-2.075 -4.029,-1.534c-2.771,1.126 -3.819,23.489 -3.915,25.555c-3.062,65.373 -4.608,319.709 3.618,325.153c1.034,0.684 2.444,-0.512 3.684,-0.507c1.21,0.005 2.644,1.291 3.589,0.537c3.012,-2.403 0.708,-53.561 1.039,-206.505c0.106,-49.15 1.101,-123.8 0.049,-140.12l-4.034,-2.579Z" style="fill:#fff;"/><path d="M1201.648,928.67c-1.571,0.609 -3.15,-2.415 -4.721,-1.806c-1.109,0.43 -2.234,8.623 -2.339,9.39c-1.218,8.872 -4.357,166.677 -15.05,203.202c-5.656,19.32 -14.869,12.845 -17.612,5.012c-7.596,-21.689 -6.249,-42.353 -6.355,-61.641c-0.552,-101.057 -1.869,-101.106 -2.815,-103.072c-2.676,-5.56 -3.492,-7.935 -8.441,-4.311c-3.224,2.361 -2.459,15.407 -2.38,16.759c1.439,24.545 1.807,115.963 1.906,118.682c1.213,33.451 3.198,33.32 3.198,73.177c0.003,338.543 0.188,338.75 -1.586,343.461c-3.477,9.235 -27.266,9.365 -30.357,0.301c-1.03,-3.02 -0.914,-3.097 -0.914,-360.637c0,-206.839 -0.299,-206.862 2.385,-230.626c3.049,-26.998 -2.856,-26.939 -4.736,-25.977c-0.885,0.453 -0.625,1.955 -1.301,2.685c-0.796,0.859 -2.406,0.869 -2.952,1.905c-0.098,0.185 -0.067,0.2 -1.395,10.515c-0.23,1.789 -4.251,33.025 -13.353,18.174c-3.711,-6.056 -2.371,-6.469 -3.538,-13.432c-0.646,-3.853 -2.262,-9.539 -2.33,-9.587c-1.138,-0.805 -2.723,0.764 -4.116,0.73c-1.399,-0.035 -3.005,-1.813 -4.093,-0.933c-1.718,1.39 -0.597,14.749 -0.49,16.027c2.296,27.381 2.044,27.422 2.044,528.644c-0,60.17 2.536,67.455 -14.262,68.814c-1.776,0.144 -46.52,0.623 -50.838,0.354c-16.667,-1.036 -14.459,-9.362 -14.461,-57.918c-0.035,-835.011 0.086,-835.124 1.103,-838.816c2.909,-10.565 18.235,-8.615 30.328,-8.52c70.513,0.555 176.74,-0.348 179.593,0.521c13.898,4.236 7.352,10.38 12.019,121.175c1.573,37.344 -2.682,38.333 11.061,73.041c1.586,4.005 1.184,5.025 5.512,5.522c6.941,0.797 9.541,-5.953 12.438,-22.062c6.067,-33.731 4.935,-33.789 8.777,-67.883c5.65,-50.128 3.877,-57.229 6.792,-95.484c0.111,-1.458 1.309,-17.184 11.095,-14.523c10.262,2.79 9.27,18.188 9.324,20.232c2.866,108.594 2.573,108.588 2.849,118.029c3.634,124.153 1.684,124.157 2.091,134.946c3.32,88.061 -1.9,89.023 9.808,123.287c2.07,6.058 3.423,15.695 9.936,15.788c6.698,0.096 5.876,-2.106 7.789,-8.59c13.158,-44.603 18.798,-178.469 18.96,-181.13c5.121,-84.408 3.954,-84.341 5.652,-168.878c0.429,-21.352 10.421,-11.333 11.02,-10.287c2.359,4.118 7.6,457.887 11.133,533.679c0.146,3.127 0.812,17.415 9.784,37.886c1.91,4.358 12.166,9.456 15.977,-3.567c4.544,-15.528 7.312,-36.979 7.732,-40.229c5.978,-46.314 13.862,-179.157 14.192,-190.975c3.423,-122.686 -0.627,-131.8 9.928,-128.561c0.318,0.098 4.176,4.753 4.333,5.266c0.827,2.688 1.031,77.729 1.651,106.379c1.18,54.479 -1.773,54.371 -1.766,95.695c0.021,122.964 -0.476,122.94 0.823,129.729c1.047,5.472 1.295,6.683 6.857,6.351c5.903,-0.352 3.888,-13.007 4.351,-57.507c0.913,-87.7 -2.205,-95.826 7.783,-128.671c2.921,-9.604 11.509,-9.981 14.983,-0.276c17.23,48.131 13.44,197.208 19.592,200.405c1.211,0.63 2.434,-1.528 3.799,-1.53c1.148,-0.002 2.139,2.161 3.092,1.52c1.364,-0.919 1.469,-8.976 1.479,-9.766c0.495,-38.219 -5.52,-129.53 1.045,-134.473c1.471,-1.107 3.71,-0.425 5.402,-1.149c2.69,-1.152 4.899,-3.261 7.59,-4.412c-0.359,-32.221 2.156,-162.347 4.689,-208.355c1.748,-31.735 -1.224,-32.347 9.075,-62.449c0.514,-1.504 2.869,-9.193 7.056,-9.852c9.991,-1.572 13.563,15.478 17.619,49.621c12.343,103.909 13.775,191.426 16.55,298.178c0.958,36.852 -0.615,37.47 2.864,42.252c0.673,0.925 1.164,3.381 2.097,2.718c5.539,-3.936 4.385,-4.913 4.728,-11.727c3.496,-69.494 2.785,-69.397 4,-173.871c0.314,-27 0.38,-26.957 7.061,-337.448c0.817,-37.982 -0.415,-47.577 12.468,-48.557c24.423,-1.859 22.525,7.101 25.063,31.403c10.642,101.907 7.367,107.055 13.087,236.656c0.798,18.08 0.994,74.719 2.813,77.672c0.708,1.151 2.72,1.011 3.429,2.162c0.689,-2.297 1.616,-4.519 2.305,-6.816c6.762,-22.542 4.791,-167.297 8.212,-303.775c0.733,-29.238 -0.2,-37.142 18.072,-37.37c22.308,-0.278 30.5,0.061 33.91,3.453c4.66,4.635 3.245,91.38 4.045,107.444c0.444,8.93 -1.389,12.92 7.541,12.29c5.537,-0.391 3.003,-3.794 5.269,-102.655c0.285,-12.424 0.127,-18.253 11.289,-20.383c1.013,-0.193 95.915,-0.154 117.918,-0.042c16.822,0.085 22.524,-2.111 23.829,14.681c0.58,7.467 0.266,869.008 0.169,872.031c-0.677,21.1 -8.43,18.092 -29.593,18.345c-34.081,0.407 -42.314,1.792 -47.665,-5.338c-3.169,-4.222 -2.809,-4.889 -2.809,-232.431c-0,-223.662 -0.322,-223.745 2.364,-242.223c-2.711,-2.97 -8.136,-2.308 -10.847,-5.277c-2.932,-3.212 -1.851,-130.489 -5.046,-133.499c-0.06,-0.056 -7.246,-0.062 -7.309,-0.005c-4.127,3.655 -0.24,143.454 0.603,150.451c1.449,12.03 1.294,12.08 1.294,393.678c0,66.818 1.749,72.144 -9.083,74.467c-2.339,0.502 -26.867,0.48 -28.641,0.209c-12.792,-1.958 -11.438,-10.337 -11.443,-57.801c-0.02,-188.004 -0.15,-187.978 1.781,-213.789c-2.653,2.553 -6.831,3.11 -9.485,5.664c-1.999,1.923 -1.628,5.848 -3.99,7.302c-2.062,1.27 -6.043,0.477 -6.275,-29.619c-0.339,-44.111 -2.109,-93.407 -2.401,-101.526c-0.259,-7.209 -1.259,-7.076 -5.703,-89.991c-4.693,-87.555 -15.187,-140.861 -20.136,-144.186c-1.118,-0.751 -6.936,-0.79 -8.056,-0.057c-0.905,0.592 -10.635,20.873 -12.298,37.501c-2.875,28.755 -1.745,70.709 -7.642,292.404c-0.083,3.111 -0.068,3.076 -3.461,225.15c-0.02,1.294 -0.222,14.533 -1.627,16.099c-1.136,1.266 -3.096,1.781 -4.796,1.74c-5.04,-0.12 -4.3,-1.821 -4.938,-6.862c-0.919,-7.265 -4.386,-264.804 -24.571,-348.074c-0.242,-0.997 -1.669,-10.954 -9.486,-10.265c-2.329,0.205 -6.777,0.597 -12.988,26.182c-6.428,26.476 -4.79,173.118 -10.76,309.785c-1.508,34.529 1.38,72.735 -5.253,77.963c-2.767,2.181 -13.326,4.28 -14.395,-10.638c-1.157,-16.162 -3.812,-61.732 -4.125,-67.102c-1.866,-32.033 -3.702,-31.795 -7.461,-73.468c-3.872,-42.927 -8.585,-48.8 -11.255,-52.128c-10.784,-13.441 -20.117,23.952 -20.932,35.185c-1.446,19.923 -3.672,82.981 -3.927,90.199c-2.228,63.1 3.81,79.348 -15.943,80.173c-23.162,0.967 -35.085,-1.705 -39.443,-1.333c-1.853,0.158 -3.657,0.702 -5.505,0.908c-16.306,1.812 -16.767,-6.299 -17.17,-17.828c-0.988,-28.256 -0.105,-102.209 -2.147,-105.768c-0.659,-1.149 -6.918,-2.213 -8.72,-0.89c-3.951,2.901 -1.493,34.734 -3.457,78.648c-1.062,23.734 2.298,42.626 -7.731,45.724c-0.022,0.007 -37.231,3.945 -43.04,-2.855c-5.945,-6.96 -2.336,-20.809 -5.422,-110.552c-0.984,-28.613 -0.546,-216.003 -7.963,-217.441c-12.255,-2.375 -2.625,7.859 -10.321,155.692c-0.047,0.896 -5.092,77.629 -5.536,84.379c-3.925,59.689 -6.936,72.201 -8.411,78.328c-0.616,2.56 -0.691,15.308 -21.002,13.23c-14.183,-1.451 -12.422,-8.77 -13.148,-52.217c-3.308,-197.816 -6.288,-234.504 -8.068,-438.881c-0.032,-3.694 -0.346,-39.741 -6.981,-45.648c-8.682,-7.729 -0.801,6.621 -12.26,208.783c-0.64,11.296 -5.837,102.986 -16.282,140.481c-0.259,0.931 -2.601,9.339 -5.417,10.805c-6.991,3.638 -10.409,-4.092 -10.794,-4.961c-10.93,-24.712 -8.255,-30.507 -10.379,-123.793c-2.104,-92.412 -0.551,-240.2 -4.73,-253.836c-2.56,-8.354 -5.249,-5.988 -14.184,-10.257c0.3,-16.806 0.705,-16.69 -0.145,-33.486c-1.203,-0.922 -2.406,-1.843 -3.609,-2.765Z" style="fill:#fff;"/><path d="M4227.156,1178.498c1.221,-1.122 3.075,-1.387 4.295,-2.509c8.012,-7.366 2.331,-99.495 6.523,-200.07c2.403,-57.653 3.401,-140.586 3.941,-157.584c0.6,-18.911 9.913,-16.977 30.268,-16.575c22.038,0.436 16.733,12.321 20.139,61.888c3.952,57.517 0.529,124.122 4.722,127.006c0.894,0.615 2.12,-0.579 3.205,-0.576c1.086,0.003 2.316,1.222 3.202,0.595c1.43,-1.012 2.208,-8.42 2.287,-9.172c4.441,-42.273 1.275,-168.086 6.049,-174.179c2.499,-3.19 6.179,-7.886 50.378,-5.301c16.88,0.987 16.795,0.285 33.78,-0.219c55.754,-1.652 57.68,2.138 59.862,6.432c3.922,7.718 4.191,87.389 5.825,128.412c0.539,13.537 7.305,31.01 10.834,35.946c15.48,21.653 22.088,-37.573 27.274,-92.059c5.895,-61.936 4.538,-62.033 5.708,-67.309c3.699,-16.673 16.028,-9.907 18.231,-5.217c4.042,8.608 4.576,174.632 7.267,235.43c3.778,85.356 -1.026,86.386 9.526,113.289c1.11,2.831 3.815,14.059 13.519,11.448c9.349,-2.516 20.903,-97.125 25.318,-209.284c2.235,-56.774 2.786,-56.731 2.886,-61.669c1.17,-57.664 -1.249,-58.835 3.824,-63.923c10.018,-10.048 9.233,13.567 9.55,69.355c0.298,52.584 9.208,403.105 9.556,416.385c0.376,14.385 1.564,14.153 9.12,34.328c0.394,1.051 3.81,10.172 11.123,8.549c3.231,-0.717 5.221,-8.746 5.433,-9.602c7.181,-28.973 11.093,-66.856 11.698,-72.717c4.478,-43.373 3.816,-55.266 5.794,-78.719c8.151,-96.601 4.696,-165.502 7.292,-173.798c1.507,-4.816 3.112,-2.61 4.78,-2.609c0.968,0.001 1.959,-1.27 2.795,-0.783c1.114,0.649 1.378,2.211 1.766,3.44c4.503,14.296 7.869,430.394 12.202,488.815c0.212,2.861 0.932,12.568 10.574,34.27c3.048,6.861 10.359,6.064 12.867,0.085c8.061,-19.215 12.54,-67.552 13.092,-73.499c4.442,-47.936 3.653,-47.871 7.634,-95.933c7.247,-87.491 3.405,-141.009 5.75,-157.669c0.87,-6.18 0.724,-7.895 6.865,-7.657c3.91,0.152 4.605,7.271 4.677,8.01c1.301,13.329 2.372,113.689 2.477,123.576c1.753,164.281 3.3,168.344 5.501,286.888c1.192,64.206 5.556,73.459 -13.102,73.896c-60.159,1.41 -61.359,-0.847 -63.22,-5.571c-3.494,-8.872 -2.379,-130.379 -5.927,-134.781c-0.931,-1.154 -7.213,-1.266 -8.3,-0.062c-2.434,2.694 -1.323,33.94 -1.673,66.541c-0.724,67.468 -1.455,68.508 -6.228,71.733c-5.028,3.398 -38.01,3.439 -42.91,-0.14c-7.484,-5.464 -3.845,-7.849 -9.152,-183.921c-0.042,-1.407 -0.519,-17.228 -8.842,-15.213c-16.522,4 -1.902,25.805 -20.597,167.187c-1.945,14.706 -1.932,31.557 -13.109,33.844c-26.331,5.389 -19.56,-28.636 -22.704,-107.207c-3.472,-86.756 -0.135,-89.252 -7.029,-93.039c-5.415,-2.974 -5.883,-1.162 -77.211,-1.551c-7.199,-0.039 -64.228,-0.351 -89.989,-0.037c-110.274,1.342 -112.958,-2.196 -117.127,5.159c-4.106,7.245 -2.912,179.075 -3.811,184.608c-3.533,21.757 -11.936,6.531 -12.264,5.507c-0.417,-1.302 -0.53,-15.067 -0.541,-16.378c-0.621,-75.494 -2.377,-75.343 -4.697,-135.021c-1.198,-30.827 0.363,-42.456 -13.556,-43.476c-27.68,-2.029 -30.469,3.02 -31.712,5.271c-5.416,9.805 -3.658,168.222 -6.689,184.737c-3.295,17.956 -19.139,11.364 -21.655,4.762c-2.563,-6.727 -8.367,-101.552 -16.739,-129.378c-4.02,-13.359 -11.73,-17.036 -16.962,-4.034c-11.392,28.31 -9.034,42.112 -9.716,72.143c-1.328,58.432 1.473,68.287 -20.164,68.413c-57.792,0.339 -58.822,-0.581 -59.976,-3.575c-1.101,-2.855 -0.003,-48.987 0.032,-64.679c0.247,-112.308 6.364,-306.915 7.058,-365.721c0.037,-3.176 0.19,-16.107 9.746,-38.489c0.409,-0.959 3.874,-9.075 9.636,-8.776c10.19,0.529 14.87,38.312 15.309,41.85c8.18,66.031 10.811,108.555 11.396,118.023c6.721,108.645 2.762,169.188 8.923,171.908c0.866,0.382 7.01,-2.34 7.83,-3.819c0.958,-1.728 1.116,-25.344 1.131,-27.55c0.19,-28.351 1.928,-287.744 6.192,-354.341c5.124,-80.023 -3.065,-94.573 12.342,-128.587c3.587,-7.919 8.948,-7.13 9.908,-6.988c6.831,1.006 11.579,26.085 12.04,28.518c2.233,11.793 10.228,80.857 11.406,95.697c6.399,80.611 5.338,190.614 9.394,203.172c2.785,8.623 10.034,-0.075 10.37,-1.107c0.931,-2.857 -0.704,-62.544 0.631,-128.892c0.793,-39.405 1.274,-39.299 2.13,-78.684c5.286,-243.327 6.109,-243.215 6.419,-264.368c0.047,-3.198 0.323,-21.985 10.673,-38.53c4.194,-6.703 8.646,-5.618 9.496,-5.411c18.983,4.627 26.911,203.807 27.093,207.151c5.49,100.57 0.844,116.751 4.193,122.193c0.562,0.913 2.282,0.586 2.844,1.499Zm278.887,157.331c-0.237,4.825 -2.69,18.163 8.124,20.732c10.165,2.415 10.352,-13.558 10.369,-15.017c0.147,-12.59 -1.675,-12.567 -0.679,-157.387c0.177,-25.762 -1.083,-27.894 -2.306,-29.963c-2.649,-4.481 -2.944,-6.566 -7.499,-3.892c-3.685,2.164 -3.871,55.08 -4.522,84.45c-1.121,50.595 -1.697,50.439 -3.487,101.078Zm-60.823,-279.713c-1.604,-2.111 -2.729,-4.558 -4.333,-6.668c-1.316,-1.732 -2.233,-4.606 -4.397,-4.822c-4.902,-0.49 -1.311,57.495 -2.215,77.502c-0.429,9.481 -1.961,43.371 -9.297,118.272c-0.493,5.033 -4.36,44.521 -11.555,62.149c-1.711,4.192 -7.925,10.214 -13.644,1.044c-1.65,-2.646 -9.919,-26.787 -10.136,-40.741c-0.345,-22.178 0.674,-203.489 -1.269,-207.276c-0.334,-0.65 -3.136,-6.113 -9.109,-0.708c-3.776,3.418 0.259,87.657 -1.21,202.182c-0.197,15.39 1.87,46.162 -1.306,48.916c-0.868,0.753 -2.299,-0.041 -3.448,-0.032c-6.655,0.055 -5.459,-2.491 -6.174,-9.187c-2.557,-23.938 2.617,-70.832 -6.553,-180.014c-3.096,-36.861 -0.37,-66.493 -1.052,-72.615c-0.088,-0.793 -1.094,-1.205 -1.398,-1.943c-2.04,-4.95 -0.492,-7.304 -5.794,-7.347c-0.61,-0.005 0.004,0.514 -2.947,7.03c-0.4,0.883 -1.609,1.365 -1.747,2.324c-0.149,1.029 1.062,1.924 0.983,2.961c-0.071,0.921 -1.326,1.475 -1.393,2.396c-0.081,1.105 1.04,2.067 0.987,3.173c-0.042,0.882 -1.125,1.462 -1.249,2.337c-0.063,0.443 -0.22,10.989 -2.128,21.985c-0.303,1.749 -3.341,19.263 -6.229,21.292c-0.722,0.507 -6.964,4.893 -10.167,-4.267c-0.481,-1.376 0.082,-1.391 -4.628,-17.619c-0.875,-3.014 -1.173,-6.311 -2.823,-8.981c-0.885,-1.432 -6.671,-1.69 -7.644,-0.378c-3.098,4.177 1.322,5.549 0.341,66.398c-3.441,213.364 -5.527,214.383 -1.544,218.924c4.484,5.112 13.274,3.942 38.836,4.491c6.297,0.135 6.233,-0.12 78.727,-0.116c5.702,0 24.753,2.537 26.788,-9.83c0.368,-2.236 -3.705,-232.562 -4.213,-241.662c-0.011,-0.016 -3.874,-1.884 -4.578,-6.653c-0.647,-4.383 -0.171,-5.101 0.07,-5.466c2.567,-3.875 4.57,-1.539 7.132,-5.406c-1.923,-2.446 -5.681,-2.967 -7.604,-5.413c-1.301,-1.655 -0.504,-1.833 -2.077,-26.236Zm-164.234,161.978c-1.831,-14.582 -2.076,-15.931 -2.325,-17.306c-0.489,-2.694 -5.044,-27.815 -6.355,-33.632c-6.916,-30.68 -17.228,-7.367 -17.758,-5.965c-8.762,23.16 -9.062,25.117 -9.392,39.766c-0.11,4.878 -3.145,117.494 -2.897,140.649c0.086,7.978 1.463,14.57 13.143,14.852c19.692,0.476 33.466,1.53 35.053,-9.056c1.126,-7.51 -8.571,-118.975 -9.47,-129.308Z" style="fill:#fff;"/><path d="M3113.43,1704.13c77.659,0.762 77.585,0.024 84.331,0.097c67.313,0.73 67.27,-0.061 73.119,0.008c42.315,0.505 42.227,-0.508 84.457,0.555c13.028,0.328 83.094,-1.673 90.562,1.131c7.742,2.907 6.891,5.848 6.862,113.766c-0.012,42.102 1.839,51.917 -12.789,52.989c-13.32,0.976 -127.609,-0.518 -180.274,0.539c-4.499,0.09 -4.407,-0.308 -56.246,-0.32c-98.973,-0.024 -99.112,-1.206 -107.44,0.921c-12.284,3.137 -10.523,9.451 -10.523,80.87c-0,103.508 -0.733,105.348 4.539,108.118c8.266,4.344 8.884,2.124 203.42,2.796c33.754,0.117 33.682,-0.23 67.491,-0.005c16.803,0.112 26.306,-3.316 26.337,18.476c0.014,9.891 0.165,116.854 -0.035,123.643c-0.484,16.472 -14.498,12.612 -43.123,13.149c-14.112,0.264 -242.329,-0.311 -247.364,0.35c-12.51,1.642 -11.153,13.538 -11.217,20.352c-0.138,14.847 -1.344,144.534 0.167,185.6c0.458,12.452 4.789,14.611 16.511,14.684c65.376,0.411 339.128,-0.532 343.597,0.856c8.564,2.659 7.431,6.088 7.431,102.606c-0,55.237 2.168,63.162 -13.309,64.188c-14.576,0.966 -504.763,-0.474 -545.866,0.706c-21.772,0.625 -23.07,-4.311 -23.317,-19.875c-1.063,-67.043 -0.221,-67.024 -0.147,-838.143c0.004,-37.121 -1.809,-45.621 11.805,-47.445c7.694,-1.031 184.415,0.812 231.021,-0.612Zm-73.111,737.682c1.751,0.003 20.814,0.041 21.882,-0.369c8.916,-3.425 7.395,-7.662 7.395,-64.881c0,-147.994 0.266,-148.399 -1.803,-151.432c-3.812,-5.588 -24.49,-4.052 -33.087,-3.991c-18.931,0.134 -16.675,7.059 -16.863,26.048c-0.138,13.949 -1.296,130.663 0.171,174.367c0.762,22.71 8.56,19.397 22.305,20.257Zm-0.011,-568.944c-5.92,0.948 -5.927,-0.203 -11.791,0.736c-0.45,0.072 -3.766,0.603 -5.33,2.005c-6.211,5.568 -5.389,7.088 -5.389,129.703c-0,50.421 -2.15,57.011 11.467,59.831c0.679,0.141 27.825,0.176 27.84,0.175c8.279,-0.623 10.209,-3.422 10.732,-4.18c2.05,-2.972 1.76,-3.364 1.76,-112.076c0,-69.148 1.212,-71.903 -6.173,-74.532c-4.492,-1.599 -4.567,-0.898 -23.116,-1.662Zm-88.31,368.71c-0.016,10.072 -0.15,175.992 0.088,185.526c0.317,12.667 2.482,14.101 15.098,14.703c16.107,0.769 14.846,-12.659 14.866,-14.665c0.007,-0.708 0.008,-190.578 -0,-191.16c-0.138,-9.473 -2.466,-14.853 -14.866,-14.839c-15.522,0.017 -14.77,4.951 -15.186,20.435Zm15.183,-368.713c-4.7,1.14 -14.657,-1.562 -15.089,14.412c-0.321,11.884 -0.146,139.642 -0.13,151.785c0.025,18.591 -3.382,26.198 15.219,26.203c12.682,0.004 14.754,-5.499 14.869,-14.986c0.005,-0.391 0.012,-162.663 -0.006,-163.039c-0.482,-9.841 -0.006,-11.903 -9.55,-14.251c-1.72,-0.423 -3.593,0.299 -5.313,-0.124Z" style="fill:#fff;"/><path d="M2661.121,1369.687c-0.001,64.772 2.073,72.265 -14.562,73.066c-1.499,0.072 -541.035,0.51 -551.251,0.247c-20.418,-0.527 -17.361,-9.563 -17.412,-39.562c-0.116,-68.401 -1.427,-839.646 0.476,-855.013c1.791,-14.463 15.129,-12.829 45.083,-11.739c7.194,0.262 7.075,-0.449 89.982,0.242c28.162,0.235 28.09,-1.193 56.263,-0.159c6.295,0.231 6.281,-0.581 78.739,0.229c33.807,0.378 33.7,-1.282 67.506,-0.109c6.745,0.234 6.726,-0.657 84.366,0.078c28.169,0.266 28.049,-1.253 56.266,-0.218c30.396,1.115 91.775,-2.914 99.204,2.91c5.089,3.99 4.497,5.281 4.485,110.029c-0.005,38.781 1.099,49.909 -6.85,53.012c-8.477,3.309 -8.827,1.897 -113.73,1.88c-78.892,-0.013 -87.924,-0.225 -95.567,-0.404c-9.902,-0.233 -9.89,0.48 -123.805,0.402c-3.799,-0.003 -22.884,-1.813 -25.724,3.732c-0.643,1.256 -0.555,1.368 -0.556,155.127c-0,11.132 -1.404,30.152 4.087,33.058c1.839,0.973 1.892,1.364 123.44,1.362c159.472,-0.003 160.457,-0.874 164.762,3.16c4.874,4.567 4.3,5.693 4.285,114.296c-0.003,25.082 2.945,37.092 -17.196,37.279c-101.205,0.939 -271.104,-1.004 -276.025,1.27c-4.001,1.849 -3.353,3.343 -3.353,79.575c0,136.811 -0.091,136.931 0.572,138.196c2.732,5.205 7.022,2.601 48.157,3.79c12.919,0.373 304.354,-0.999 308.953,0.655c10.606,3.814 9.404,7.458 9.404,93.61Zm-481.425,-316.299c-10.004,0.169 -14.619,-1.202 -19.384,5.341c-2.282,3.134 -2.009,3.598 -2.009,164.708c0,42.184 -3.114,50.718 15.751,51.085c8.546,0.166 21.821,1.733 22.683,-11.694c0.152,-2.376 0.102,-195.406 0.034,-196.906c-0.691,-15.197 -12.807,-12.093 -17.074,-12.534Zm67.49,-348.624c-14.614,0.799 -21.298,-0.436 -21.793,23.691c-0.049,2.362 -0.468,151.309 0.252,157.361c1.712,14.382 14.627,12.122 38.424,12.025c7.892,-0.032 15.34,0.657 15.759,-12.054c0.074,-2.231 0.289,-162.529 -0.124,-168.406c-0.941,-13.374 -8.35,-12.213 -32.518,-12.616Zm-67.475,0.022c-8.675,0.13 -19.949,-2.368 -21.121,12.532c-1.247,15.862 -0.362,149.942 -0.276,162.98c0.098,14.831 2.624,19.03 27.051,17.429c4.786,-0.314 5,-0.135 8.308,-3.619c4.055,-4.27 3.15,-12.282 3.15,-30.673c0,-150.599 0.423,-151.375 -2.92,-155.043c-3.421,-3.753 -4.127,-2.209 -14.192,-3.607Zm67.475,348.612c-15.299,0.266 -21.269,-1.118 -21.767,18.182c-0.089,3.443 -0.478,175.832 0.203,185.542c1.279,18.242 7.955,18.052 38.45,17.34c19.893,-0.465 15.8,-8.603 15.846,-28.527c0.397,-170.236 1.106,-170.252 -0.524,-184.959c-0.473,-4.272 -0.029,-4.931 -3.941,-6.607c-3.702,-1.586 -24.341,-0.992 -28.267,-0.971Z" style="fill:#fff;"/><path d="M4073.162,1994.063c-0.062,-16.288 3.158,-28.237 -14.617,-29.562c-24.488,-1.825 -29.023,1.819 -31.366,7.732c-1.742,4.397 -0.231,644.075 -0.857,702.474c-0.212,19.802 1.201,26.38 -18.528,26.694c-33.362,0.532 -58.568,1.958 -61.038,-5.358c-0.101,-0.299 0.9,-2.861 0.893,-10.377c-0.04,-208.034 -0.079,-416.069 -0.119,-624.103c0,-91.56 1.252,-96.764 -7.34,-96.323c-3.833,0.197 -4.816,5.846 -4.928,6.488c-0.433,2.488 -0.386,2.45 -0.386,657.96c0,62.68 1.336,62.714 0.278,68.054c-0.684,3.45 -10.793,3.798 -11.783,3.832c-37.154,1.276 -41.863,-0.23 -43.364,-10.273c-1.718,-11.496 0.015,-684.161 -0.973,-708.519c-1.074,-26.474 -21.451,-17.012 -23.545,-11.42c-1.351,3.608 -1.152,3.707 -1.161,697.701c-0,23.66 3.2,32.266 -15.294,32.704c-18.071,0.428 -25.403,0.472 -26.852,-10.384c-1.082,-8.097 -0.118,-703.505 -0.54,-714.241c-0.654,-16.638 -11.992,-12.711 -40.061,-12.912c-99.636,-0.714 -100.476,1.576 -107.59,-3.087c-3.358,-2.201 -2.833,-13.411 -2.839,-45.83c-0.023,-112.07 -0.549,-113.525 4.29,-116.825c7.77,-5.299 52.501,-0.666 72.349,-1.7c42.878,-2.233 42.839,1.669 73.114,-0.113c21.576,-1.27 21.482,-0.891 45.05,-0.022c30.994,1.143 30.937,-1.635 61.893,-0.43c36.62,1.426 36.576,-1.346 73.126,0.05c36.657,1.4 36.575,-1.326 73.124,0.053c39.396,1.486 39.363,-1.185 78.734,0.301c30.945,1.169 30.884,-1.656 61.892,-0.451c43.616,1.696 48.452,-3.532 50.513,6.672c1.825,9.038 0.641,134.53 0.531,146.228c-0.085,9.011 1.817,11.212 -6.601,14.583c-0.714,0.286 -15.066,0.369 -16.376,0.376c-58.388,0.338 -118.048,0.016 -123.768,0.091c-9.362,0.122 -11.273,-0.86 -14.515,7.986c-1.571,4.286 0.44,711.579 -1.115,719.689c-2.353,12.265 -17.75,12.194 -19.951,0.142c-0.305,-1.669 -0.281,-1.643 -0.279,-697.881Z" style="fill:#fff;"/><path d="M2607.183,1795.786c42.931,0.347 55.293,0.153 56.421,0.337c0.905,0.147 7.584,1.234 8.673,7.497c0.387,2.227 0.346,2.19 0.346,803.568c-0,89.205 0.802,91.07 -4.512,93.685c-5.691,2.8 -73.834,1.631 -77.365,0.572c-9.181,-2.755 -7.923,-15.553 -7.923,-66.132c-0.004,-812.138 -0.013,-812.14 0.266,-821.317c0.552,-18.143 5.911,-17.441 24.095,-18.209Z" style="fill:#fff;"/><path d="M3760.317,709.741c37.903,0.739 49.303,-2.38 51.592,12.931c0.51,3.414 0.458,3.362 0.458,843.89c-0,34.547 1.963,46.682 -12.871,48.254c-8.408,0.891 -46.354,0.355 -50.384,0.298c-18.894,-0.267 -16.49,-7.224 -16.66,-26.053c-0.095,-10.484 -0.022,-771.073 -0.015,-838.123c0,-0.996 -0.561,-33.625 1.814,-36.85c0.464,-0.63 2.074,-2.817 8.966,-3.901c0,-0 15.733,-0.41 17.101,-0.445Z" style="fill:#fff;"/><path d="M2855.093,620.903c0.37,5.914 0.874,5.805 0.736,11.756c-0.01,0.437 -0.007,263.535 -0.007,742.653c0,130.333 1.148,130.277 0.243,141.566c-0.14,1.74 -1.014,3.368 -1.154,5.107c-16.86,3.49 -16.855,3.184 -33.962,2.785c-19.932,-0.464 -20.162,-5.842 -20.504,-25.747c-0.749,-43.57 0.474,-51.669 1.144,-56.108c1.585,-10.501 2.207,-145.568 -0.092,-168.961c-1.265,-12.931 -1.122,-12.964 -1.124,-568.018c-0,-79.619 -1.693,-83.755 9.805,-87.416c1.089,-0.347 32.473,-1.135 39.539,0.502c1.849,0.428 3.525,1.451 5.374,1.88Z" style="fill:#fff;"/><path d="M3665.687,1223.366c0.531,-12.314 4.859,-251.682 -1.751,-331.829c-1.46,-17.703 -0.545,-139.704 -0.454,-151.852c0.146,-19.435 -2.244,-29.738 18.048,-29.935c30.389,-0.295 36.655,-0.807 36.949,13.4c0.067,3.248 -0.005,786.522 0.038,871.504c0.007,13.299 1.935,19.519 -14.542,20.367c-33.394,1.718 -35.921,-2.057 -37.606,-4.575c-3.258,-4.868 -2.89,-5.495 -2.889,-330.759c0,-28.308 0.021,-28.195 2.208,-56.321Z" style="fill:#fff;"/><path d="M1673.434,2517.712c-1.877,-0.049 -3.756,0.013 -5.634,-0.037c-17.92,-0.472 -16.08,-7.797 -16.163,-39.865c-0.027,-10.391 -0.01,-821.038 -0.009,-821.247c0.098,-35.682 -2.325,-43.797 16.203,-44.31c25.704,-0.712 27.835,0.891 29.743,2.326c6.675,5.021 5.187,12.442 5.174,36.358c-0.46,857.109 0.052,857.267 -1.109,860.66c-2.983,8.721 -21.861,6.203 -28.205,6.115Z" style="fill:#fff;"/><path d="M2010.612,627.122c-0.722,-12.823 -0.673,-12.767 -0.668,-33.684c0.011,-47.668 -2.348,-56.928 17.848,-57.204c22.713,-0.31 32.829,0.529 34.794,5.924c1.227,3.369 1.095,3.43 1.095,765.655c-0,128.987 0.525,130.208 -3.432,133.05c-5.415,3.889 -41.608,2.036 -43.499,0.982c-2.377,-1.324 -2.362,-22.485 -2.364,-49.656c-0.065,-737.187 0.427,-737.204 -1.044,-753.253l-2.729,-11.813Z" style="fill:#fff;"/><path d="M953.43,1534.558c-3.13,-0.134 -15.856,1.885 -19.709,-8.088c-0.847,-2.192 -0.768,-2.26 -0.766,-837.408c0,-50.706 -2.486,-59.309 14.935,-59.855c23.032,-0.722 26.928,1.296 28.994,2.366c5.406,2.801 4.093,20.379 4.09,34.989c-0.166,856.241 0.274,856.328 -0.66,860.254c-2.44,10.254 -21.354,7.671 -26.884,7.741Z" style="fill:#fff;"/><path d="M2516.716,2320.325c2.293,-52.973 4.223,-297.459 0.67,-506.247c-0.219,-12.892 -1.915,-17.358 10.931,-18.184c30.944,-1.991 33.084,4.249 33.984,6.873c1.204,3.51 1.074,3.559 1.074,759.421c-0,133.096 0.562,134.256 -3.66,137.813c-5.074,4.275 -35.639,1.858 -36.491,1.466c-9.582,-4.403 -8.254,-11.681 -8.255,-60.529c-0.001,-298.592 -0.212,-298.618 1.746,-320.613Z" style="fill:#fff;"/><path d="M2809.763,2610.034c-0.29,-0.848 -3.625,-10.601 -3.625,-10.601c-0.147,-2.078 0.611,-1.97 0.558,-26.028c-0.496,-225.095 1.198,-758.063 -1.116,-770.248c-1.694,-8.918 -3.277,-8.873 -2.817,-73.48c0.088,-12.369 -1.326,-24.132 12.733,-25.476c0.668,-0.064 23.86,-0.393 28.523,0.873c8.33,2.261 8.316,11.414 8.433,13.465c0.091,1.589 0.024,629.449 0.044,854.898c0.001,11.945 1.128,28.91 -3.506,33.67c-3.919,4.026 -34.287,2.876 -39.226,2.926Z" style="fill:#fff;"/><path d="M2730.908,2669.062c-0.459,22.864 2.644,33.019 -16.854,33.418c-5.363,0.11 -19.62,1.698 -23.976,-4.071c-2.158,-2.858 -1.914,-3.299 -1.914,-265.597c-0,-628.744 -0.15,-628.939 1.251,-631.328c4.038,-6.885 5.447,-5.435 13.38,-5.493c10.647,-0.077 20.108,-1.416 25.145,4.899c3.426,4.296 3.045,5.076 3.045,395.671c-0.026,157.5 -0.051,315 -0.077,472.5Z" style="fill:#fff;"/><path d="M2732.975,891.741c-1.328,-84.031 -0.477,-155.436 -0.316,-168.952c0.203,-17.067 3.345,-16.719 3.675,-33.723c0.423,-21.828 0.376,-56.85 0.37,-61.794c-0.003,-1.981 -1.238,-4.225 -0.243,-5.938c2.006,-3.451 32.751,-6.19 37.342,1.531c2.17,3.65 1.955,4.01 1.955,313.697c0,323.897 0.113,323.901 -0.94,343.147c-0.604,11.036 -0.258,134.528 -0.225,146.226c0.071,25.328 1.165,25.222 1.165,50.627c0,36.709 2.237,45.391 -10.561,47.505c-0.957,0.158 -20.45,1.079 -22.653,0.507c-9.562,-2.483 -9.077,-4.491 -9.723,-14.352c-1.108,-16.896 0.002,-57.232 0.138,-62.206c4.155,-17.118 3.739,-17.273 3.734,-117.704c-0.002,-41.494 0.137,-41.44 -2.505,-56.497c-1.666,-14.011 -1.561,-14 -1.561,-106.628c0,-99.03 -0.091,-98.995 0.688,-112.85c1.509,-10.667 2.503,-17.696 1.699,-134.65c-0.099,-14.37 -0.097,-14.288 -2.04,-27.946Z" style="fill:#fff;"/><path d="M3614.048,709.744c4.826,0.145 16.536,-1.797 20.305,7.991c1.759,4.567 -0.764,216.451 -0.181,443.822c0.564,220.327 0.844,220.236 0.69,427.504c-0.014,18.482 3.251,25.791 -15.219,26.088c-7.151,0.115 -20.835,1.383 -23.258,-9.026c-0.897,-3.853 -0.629,-213.031 -0.159,-219.549c6.904,-95.663 3.727,-495.335 2.63,-573.726c-0.638,-45.575 -3.244,-45.414 -2.959,-84.426c0.15,-20.503 7.202,-17.563 18.152,-18.679Z" style="fill:#fff;"/><path d="M1905.85,964.687l0,-225c-0,-102.799 -0.545,-103.723 3.288,-107.458c4.195,-4.087 21.412,-3.18 23.65,-0.886c1.369,1.403 0.747,3.851 1.219,5.754c0.807,3.251 0.522,3.225 0.284,6.605c-0.138,1.959 0.131,3.925 0.165,5.888c1.957,110.616 -0.907,776.259 1.483,787.133c2.249,10.233 3.126,10.194 2.902,56.72c-0.147,30.518 2.566,40.912 -17.919,40.799c-9.34,-0.052 -11.241,1.048 -14.615,-7.611c-0.513,-1.316 -0.457,-1.363 -0.457,-561.942Z" style="fill:#fff;"/><path d="M1943.741,593.436c-0.022,-3.598 -0.243,-40.305 0.008,-44.973c0.742,-13.817 13.443,-12.293 16.569,-12.27c17.309,0.127 16.115,7.542 16.119,23.495c0.017,69.299 0.186,764.83 -0.412,866.237c-0.1,16.946 -4.36,18.238 -21.351,17.048c-4.639,-0.325 -6.219,0.623 -6.752,-4.021c-0.461,-4.015 0.229,-773.363 -0.397,-794.912c-0.342,-11.765 -2.851,-15.886 -2.998,-16.593c-0.887,-4.258 -0.796,-31.29 -0.787,-34.011Z" style="fill:#fff;"/><path d="M3879.947,1414.687c-0,52.5 -0,105 -0,157.5c-0.009,13.207 1.293,37.193 -6.277,40.841c-18.57,8.948 -19.15,-10.806 -19.205,-12.645c-0.013,-0.436 -0.145,-874.315 0.072,-877.71c1.037,-16.2 22.267,-17.397 24.904,-0.01c0.568,3.743 0.506,3.697 0.506,692.024Z" style="fill:#fff;"/><path d="M1609.542,2247.188c-0,262.707 0.205,263.042 -1.615,265.727c-4.79,7.067 -13.017,5.996 -14.129,-6.884c-0.121,-1.398 -0.187,-881.351 0.035,-883.33c1.631,-14.539 15.133,-13.073 15.652,0.284c0.063,1.624 0.056,1.624 0.056,624.204Z" style="fill:#fff;"/><path d="M2797.249,2606.694c3.883,54.719 -0.229,89.389 -0.389,89.777c-2.33,5.661 -14.034,10.116 -16.246,-4.746c-0.628,-4.224 -0.221,-337.934 -0.321,-860.787c-0.002,-10.619 -1.791,-31.975 6.78,-34.1c8.811,-2.185 10.127,5.038 10.297,5.975c0.315,1.731 -2.343,2.855 -2.595,4.596c-1.043,7.207 0.213,7.21 0.213,91.029c0,700.94 -0.053,700.937 0.426,703.319c0.346,1.721 1.489,3.216 1.835,4.937Z" style="fill:#fff;"/><path d="M3999.177,1543.875c2.802,34.668 5.842,46.43 7.344,140.874c0.025,1.596 0.302,18.961 -0.393,19.945c-3.677,5.208 -44.232,3.907 -48.484,1.619c-7.472,-4.021 -5.971,-12.529 -5.164,-66.616c0.266,-17.835 0.641,-17.717 2.461,-28.135c2.303,-13.183 0.42,-152.599 4.657,-167.739c0.333,-1.19 7.285,-20.926 8.576,-23.7c3.438,-7.386 10.463,-5.315 12.715,-0.834c12.261,24.395 16.837,101.497 18.289,124.585Z" style="fill:#fff;"/><path d="M3579.496,760.353c2.173,2.822 3.561,0.968 5.739,3.797c0.888,1.153 0.05,1.234 0.315,4.065c0.155,1.661 2.135,16.359 1.853,55.727c-0.384,53.608 -0.176,53.529 0.025,208.233c0.411,315.002 0.577,314.93 -2.114,342.172l-4.888,6.245c-0.76,-0.941 -2.708,-0.128 -3.468,-1.07c-1.383,-1.713 -1.493,-14.301 -1.504,-15.551c-0.645,-73.874 -23.126,-247.7 -3.167,-523.213c5.194,-71.696 1.222,-72.25 4.024,-77.818c0.615,-1.222 2.57,-1.366 3.185,-2.587Z" style="fill:#fff;"/><path d="M3939,1613.523c-0.545,-1.153 -2.093,-1.619 -2.639,-2.773c-1.591,-3.367 -1.446,-3.627 -1.446,-781.063c0,-114.939 -0.841,-118.348 5.23,-118.85c9.613,-0.794 7.778,18.646 7.779,23.222c0.087,699.758 -0.548,699.758 -0.773,703.082c-3.67,54.007 0.432,132.432 -2.811,168.795l-5.341,7.586Z" style="fill:#fff;"/><path d="M2010.612,627.122l2.729,11.813c-3.894,4.409 -5.877,1.632 -9.724,5.988c-0.105,0.119 0.01,0.093 0.035,4.983c0.075,15.149 0.051,67.909 0.051,168.532c0,608.846 -0.187,608.95 1.553,618.726c2.579,14.497 1.568,85.918 0.41,90.163c-2.079,7.617 -13.283,10.593 -14.421,-5.95c-0.976,-14.187 -0.16,-56.757 -0.065,-61.691c2.028,-105.809 0.166,-784.363 0.865,-815.778c0.395,-17.757 10.038,-15.378 18.567,-16.786Z" style="fill:#fff;"/><path d="M3597.51,1798.208c2.904,-0.595 2.59,-2.344 16.549,-2.289c22.111,0.086 32.009,-1.338 32.691,12.672c0.005,0.105 0.171,142.294 -0.101,145.82c-0.995,12.912 -15.125,9.819 -26.948,9.75c-18.945,-0.111 -26.481,3.73 -27.118,-15.143c-0.252,-7.48 -0.69,-67.815 0.292,-73.32c0.32,-1.793 1.257,-3.438 1.577,-5.23c3.932,-35.997 -1.408,-36.221 3.058,-72.26Z" style="fill:#fff;"/><path d="M2497.296,2324.994c-1.801,-25.114 -0.412,-65.571 -2.135,-94.712c-5.696,-96.349 -3.653,-274.451 -0.841,-326.24c3.427,-63.121 1.281,-63.095 2.223,-95.325c0.029,-0.979 0.284,-9.728 3.67,-11.684c8.407,-4.857 6.594,2.054 9.228,11.404c-0.436,1.775 -2.316,2.967 -2.753,4.742c-0.933,3.795 1.661,3.848 1.085,85.129c-1.333,188.011 1.626,410.561 -1.645,416.8c-0.399,0.76 -1.773,-0.93 -8.48,6.577c-1.214,1.359 0.911,1.895 -0.351,3.308Z" style="fill:#fff;"/><path d="M1203.957,1004.276l8.222,5.412c0.55,7.38 0.32,7.383 0.473,118.134c0.322,232.945 2.692,232.866 2.695,253.116c0.022,145.738 3.286,153.893 -8.931,152.928c-7.793,-0.616 -6.651,-4.84 -6.651,-107.928c-0,-145.662 -0.953,-350.676 4.192,-421.662Z" style="fill:#fff;"/><path d="M4289.038,1964.175c-0.872,-0.013 -10.897,-0.158 -10.897,-0.158c-9.19,-2.851 -7.716,-5.278 -7.815,-14.889c-0.121,-11.758 -1.437,-139.103 0.693,-146.985c2.052,-7.597 14.934,-5.524 18.054,-5.453c1.633,0.037 17.093,0.389 20.181,3.119c4.281,3.784 4.164,4.839 4.079,115.504c-0.023,29.964 1.034,43.98 -6.232,47.041c-3.024,1.274 -6.358,1.61 -6.925,1.668c-5.595,0.564 -5.542,-0.411 -11.139,0.153Z" style="fill:#fff;"/><path d="M3428.437,2065.605c7.77,0.236 19.81,-2.306 21.231,12.969c0.615,6.609 0.262,121.554 0.216,123.578c-0.466,20.32 -6.926,19.617 -27.212,18.513c-11.402,-0.621 -11.829,-7.897 -12.136,-12.78c-0.073,-1.158 -0.054,-128.328 -0.005,-129.516c0.635,-15.492 12.386,-12.353 17.907,-12.764Z" style="fill:#fff;"/><path d="M4792.211,1594.851c7.427,-105.289 4.435,-168.329 7.488,-180.854c2.177,-8.93 10.114,-4.153 10.348,-3.786c1.886,2.963 1.354,3.174 1.513,43.878c0.453,116.349 4.557,228.79 2.86,242.192c-2.483,19.616 -28.343,9.507 -28.81,9.11c-6.677,-5.682 1.195,-33.901 6.601,-110.54Z" style="fill:#fff;"/><path d="M3529.607,1796.682c2.219,-0.176 2.712,-0.8 11.312,-0.895c11.756,-0.13 15.562,-0.147 19.181,5.588c1.907,3.022 1.53,12.566 1.531,12.701c0.422,124.229 0.68,124.162 0.478,134.957c-0.29,15.542 -5.479,16.11 -26.606,14.927c-12.709,-0.711 -11.077,-12.955 -11.099,-20.524c-0.2,-67.176 0.939,-67.141 1.513,-73.964c0.56,-2.117 2.391,-1.977 2.748,-10.383c0.173,-4.063 1.3,-30.566 0.425,-50.827c-0.104,-2.417 -0.783,-4.81 -0.675,-7.228c0.067,-1.503 1.125,-2.849 1.192,-4.352Z" style="fill:#fff;"/><path d="M3520.865,2562.19c-0.178,34.024 2.535,46.359 -13.53,47.331c-15.397,0.931 -15.66,-3.801 -15.679,-19.213c-0.014,-10.793 -0.164,-130.52 0.04,-134.916c0.918,-19.733 24.865,-13.692 27.648,-6.091c1.722,4.703 1.531,14.051 1.521,112.889Z" style="fill:#fff;"/><path d="M2626.364,964.687c0,-4.048 -0,-50.418 0.006,-50.597c0.44,-13.63 4.244,-16.09 14.575,-16.174c18.979,-0.155 15.837,10.903 15.837,44.271c0.001,102.17 0.657,103.176 -3.985,107.565c-4.399,4.16 -20.436,2.725 -23.366,-0.441c-3.628,-3.92 -3.067,-4.604 -3.067,-84.624Z" style="fill:#fff;"/><path d="M3519.172,1799.532c-7.438,18.787 -2.137,12.83 -2.899,53.723c-0.032,1.722 -0.262,3.447 -0.141,5.165c0.109,1.553 0.707,4.826 0.541,8.545c-0.077,1.724 -2.829,7.762 -5.251,8.523c-3.06,0.961 -16.713,1.948 -17.635,-16.288c-0.077,-1.529 -0.052,-139.719 -0.011,-140.894c0.709,-20.705 21.211,-12.282 23.256,-9.903c2.847,3.311 3.121,14.337 3.153,15.611c1.546,62.022 0.792,52.561 1.743,57.86c0.133,0.739 -1.268,13.9 -2.756,17.66Z" style="fill:#fff;"/><path d="M2719.561,1275.856c1.01,2.059 4.808,1.613 5.818,3.672c0.933,1.901 -0.858,4.169 -0.931,6.286c-0.373,10.751 2.184,10.724 0.338,134.472c-0.226,15.144 0.748,15.212 0.237,16.422c-1.013,2.399 -4.37,3.264 -5.383,5.663c-1.83,-0.251 -3.708,0.42 -5.538,0.169c-8.766,-1.202 -9.23,-10.007 -9.291,-11.167c-0.153,-2.909 -0.247,-144.61 0.044,-145.799c1.786,-7.306 2.132,-7.902 9.425,-9.786c1.705,-0.44 3.577,0.51 5.282,0.069Z" style="fill:#fff;"/><path d="M3920.772,1656.943c4.144,39.494 8.168,50.503 -8.532,51.105c-23.186,0.835 -28.489,-0.089 -28.32,-17.736c0.532,-55.508 2.162,-55.432 4.97,-62.202c7.212,-17.391 9.176,-22.06 11.883,-22.619c6.914,-1.428 7.246,0.177 10.077,6.725c1.616,3.737 9.194,41.135 9.922,44.728Z" style="fill:#fff;"/><path d="M2727.652,587.812c-0.05,23.28 -0.482,23.17 -2.637,39.407c-0.674,5.079 -0.176,44.829 -0.647,61.737c-0.339,12.165 1.902,18.229 -10.12,16.15c-9.278,-1.605 -7.853,-5.847 -7.865,-89.168c-0.009,-64.978 -0.384,-70.352 1.975,-73.18c4.316,-5.174 16.343,-6.117 18.684,5.291c0.731,3.562 0.609,38.742 0.611,39.764Z" style="fill:#fff;"/><path d="M4363.585,1909.687c0,-82.599 -0.018,-98.609 0.094,-101.112c0.635,-14.144 15.118,-16.532 17.23,-0.439c0.692,5.272 0.35,138.447 0.226,141.057c-0.071,1.5 -0.877,18.5 -12.246,14.229c-6.57,-2.468 -5.306,-15.424 -5.304,-53.736Z" style="fill:#fff;"/><path d="M3517.431,2196.558c-0.136,6.666 0.372,14.82 -2.052,18.692c-6.467,10.328 -13.213,1.244 -14.085,-1.707c-0.889,-3.009 -1.005,-3.069 -0.963,-123.856c0.001,-1.589 -0.728,-16.871 2.87,-20.934c6.368,-7.188 11.724,1.357 12.253,2.201c2.091,3.336 2.044,3.678 1.977,125.604Z" style="fill:#fff;"/><path d="M3589.212,2517.188c0,80.564 0.566,87.054 -3.1,90.193c-5.836,4.996 -9.183,-0.656 -9.577,-1.322c-2.936,-4.957 -1.205,-155.105 -1.011,-156.12c1.671,-8.748 10.37,-7.782 12.302,-1.315c1.73,5.792 1.387,27.057 1.387,68.563Z" style="fill:#fff;"/><path d="M4883.453,1684.704c-0.505,14.564 0.518,14.85 -1.709,18.316c-5.928,9.229 -11.714,1.474 -12.494,-1.741c-1.165,-4.799 1.042,-92.982 1.654,-94.538c3.5,-8.9 8.79,-9.013 12.036,-0.106c0.197,0.541 0.495,75.603 0.512,78.069Z" style="fill:#fff;"/><path d="M1796.875,959.123c-1.629,-2.867 -6.467,-2.818 -8.096,-5.686c-0.831,-1.463 0.889,-3.598 2.321,-4.481c3.517,-2.169 5.04,4.296 5.17,4.848c0.409,1.737 0.196,3.582 0.605,5.319Z" style="fill:#fff;"/></g></svg>