<svg width="2800" height="1567" viewBox="0 0 2800 1567" fill="none" xmlns="http://www.w3.org/2000/svg">
<path d="M2004.35 1046.69C2004.35 1046.14 2003.9 1045.69 2003.35 1045.69H1794.98C1794.43 1045.69 1793.98 1045.25 1793.98 1044.69V910.701C1793.98 910.149 1794.43 909.701 1794.98 909.701H2370.6C2371.15 909.701 2371.6 910.149 2371.6 910.701V1044.69C2371.6 1045.25 2371.15 1045.69 2370.6 1045.69H2161.32C2160.77 1045.69 2160.32 1046.14 2160.32 1046.69V1566C2160.32 1566.55 2159.87 1567 2159.32 1567H2005.35C2004.8 1567 2004.35 1566.55 2004.35 1566V1046.69Z" fill="black"/>
<path d="M1246.35 821.309C1246.35 820.756 1246.8 820.309 1247.35 820.309H1749.53C1750.08 820.309 1750.53 820.756 1750.53 821.309V955.301C1750.53 955.854 1750.08 956.301 1749.53 956.301H1402.42C1401.86 956.301 1401.42 956.749 1401.42 957.301V1070.44C1401.42 1070.99 1401.86 1071.44 1402.42 1071.44H1730.49C1731.04 1071.44 1731.49 1071.89 1731.49 1072.44V1207.34C1731.49 1207.89 1731.04 1208.34 1730.49 1208.34H1402.42C1401.86 1208.34 1401.42 1208.79 1401.42 1209.34V1339.71C1401.42 1340.26 1401.86 1340.71 1402.42 1340.71H1749.53C1750.08 1340.71 1750.53 1341.16 1750.53 1341.71V1476.61C1750.53 1477.16 1750.08 1477.61 1749.53 1477.61H1247.35C1246.8 1477.61 1246.35 1477.16 1246.35 1476.61V821.309Z" fill="black"/>
<path d="M1201.79 1566C1201.79 1566.55 1201.34 1567 1200.79 1567H1047.73C1047.18 1567 1046.73 1566.55 1046.73 1566V910.701C1046.73 910.149 1047.18 909.701 1047.73 909.701H1200.79C1201.34 909.701 1201.79 910.149 1201.79 910.701V1566Z" fill="black"/>
<path d="M626.954 767.725C841.863 767.725 1011.43 845.694 1011.43 1095.92C1011.43 1347.05 841.863 1425.02 626.954 1425.02H411.232C410.679 1425.02 410.232 1424.58 410.232 1424.02V768.725C410.232 768.173 410.679 767.725 411.232 767.725H626.954ZM629.674 898.278H566.292C565.74 898.278 565.292 898.726 565.292 899.278V1293.47C565.292 1294.02 565.74 1294.47 566.292 1294.47H629.674C743.93 1294.47 847.304 1269.99 847.304 1095.92C847.304 922.757 743.93 898.278 629.674 898.278Z" fill="black"/>
<path d="M2380.82 216.242C2380.97 215.852 2381.34 215.594 2381.75 215.594H2550.85C2551.26 215.594 2551.64 215.851 2551.78 216.24L2799.49 871.539C2799.73 872.193 2799.25 872.893 2798.55 872.893H2632.05C2631.62 872.893 2631.24 872.62 2631.11 872.216L2591.67 756.616C2591.53 756.211 2591.15 755.939 2590.72 755.939H2338.26C2337.83 755.939 2337.45 756.214 2337.31 756.623L2298.77 872.209C2298.64 872.617 2298.25 872.893 2297.82 872.893H2134.95C2134.26 872.893 2133.77 872.194 2134.02 871.54L2380.82 216.242ZM2380.61 628.596C2380.39 629.245 2380.87 629.919 2381.55 629.919H2548.33C2549.02 629.919 2549.5 629.248 2549.28 628.599L2466.34 382.489C2466.03 381.583 2464.75 381.581 2464.44 382.486L2380.61 628.596Z" fill="black"/>
<path d="M2123.73 819.308C2123.73 819.861 2123.29 820.308 2122.73 820.308H1969.67C1969.12 820.308 1968.67 819.861 1968.67 819.308V164.01C1968.67 163.457 1969.12 163.01 1969.67 163.01H2122.73C2123.29 163.01 2123.73 163.457 2123.73 164.01V819.308Z" fill="black"/>
<path d="M1549.01 72.6758C1763.92 72.6758 1933.49 150.645 1933.49 400.872C1933.49 652.005 1763.92 729.974 1549.01 729.974H1333.29C1332.74 729.974 1332.29 729.527 1332.29 728.974V73.6758C1332.29 73.1235 1332.74 72.6758 1333.29 72.6758H1549.01ZM1551.73 203.229H1488.35C1487.8 203.229 1487.35 203.677 1487.35 204.229V598.421C1487.35 598.974 1487.8 599.421 1488.35 599.421H1551.73C1665.99 599.421 1769.36 574.943 1769.36 400.872C1769.36 227.708 1665.99 203.229 1551.73 203.229Z" fill="black"/>
<path d="M783.647 0.999981C783.647 0.447696 784.095 0 784.647 0H1286.82C1287.37 0 1287.82 0.447715 1287.82 1V134.993C1287.82 135.545 1287.37 135.993 1286.82 135.993H939.708C939.156 135.993 938.708 136.441 938.708 136.993V250.133C938.708 250.686 939.156 251.133 939.708 251.133H1267.78C1268.33 251.133 1268.78 251.581 1268.78 252.133V387.033C1268.78 387.585 1268.33 388.033 1267.78 388.033H939.708C939.156 388.033 938.708 388.481 938.708 389.033V519.399C938.708 519.952 939.156 520.399 939.708 520.399H1286.82C1287.37 520.399 1287.82 520.847 1287.82 521.399V656.299C1287.82 656.851 1287.37 657.299 1286.82 657.299H784.647C784.095 657.299 783.647 656.851 783.647 656.299V0.999981Z" fill="black"/>
<path d="M299.091 730.916C298.643 730.916 298.25 730.618 298.129 730.187L152.49 212.06C152.175 210.941 150.527 211.168 150.527 212.33V729.916C150.527 730.469 150.079 730.916 149.527 730.916H1C0.447719 730.916 0 730.469 0 729.916V74.6177C0 74.0654 0.447715 73.6177 1 73.6177H244.065C244.518 73.6177 244.914 73.9219 245.031 74.3594L369.921 541.485C370.185 542.471 371.583 542.475 371.852 541.49L499.44 74.3542C499.558 73.9193 499.953 73.6177 500.404 73.6177H740.753C741.306 73.6177 741.753 74.0654 741.753 74.6177V729.916C741.753 730.469 741.306 730.916 740.753 730.916H592.226C591.674 730.916 591.226 730.469 591.226 729.916V211.479C591.226 210.316 589.576 210.09 589.263 211.21L444.531 730.185C444.41 730.617 444.016 730.916 443.567 730.916H299.091Z" fill="black"/>
</svg>
